<mxfile host="app.diagrams.net" modified="2024-03-25T23:42:32.815Z" agent="Mozilla/5.0 (Windows NT 10.0; Win64; x64) AppleWebKit/537.36 (KHTML, like Gecko) Chrome/122.0.0.0 Safari/537.36 Edg/122.0.0.0" etag="yP1IoPyCl_jylhJImiP0" version="24.0.7" type="github" pages="2">
  <diagram name="Страница — 1" id="GM2e-rEpNRRbhRvI7l0u">
    <mxGraphModel dx="1274" dy="756" grid="1" gridSize="1" guides="1" tooltips="1" connect="1" arrows="1" fold="1" page="1" pageScale="1" pageWidth="1654" pageHeight="1169" background="none" math="0" shadow="0">
      <root>
        <mxCell id="0" />
        <mxCell id="1" parent="0" />
        <mxCell id="6h07Z5NQ0SASVdav4_DB-352" value="" style="rounded=1;whiteSpace=wrap;html=1;arcSize=5;" vertex="1" parent="1">
          <mxGeometry x="907" y="357" width="278" height="143" as="geometry" />
        </mxCell>
        <mxCell id="6h07Z5NQ0SASVdav4_DB-294" value="" style="shape=mxgraph.signs.transportation.motorcycle;html=1;pointerEvents=1;fillColor=#fad9d5;strokeColor=#ae4132;verticalLabelPosition=bottom;verticalAlign=top;align=center;sketch=0;flipH=1;" vertex="1" parent="1">
          <mxGeometry x="1251" y="386" width="125" height="78.42" as="geometry" />
        </mxCell>
        <mxCell id="6h07Z5NQ0SASVdav4_DB-336" style="rounded=0;orthogonalLoop=1;jettySize=auto;html=1;strokeWidth=2;exitX=1;exitY=0.5;exitDx=0;exitDy=0;" edge="1" parent="1" source="6h07Z5NQ0SASVdav4_DB-352">
          <mxGeometry relative="1" as="geometry">
            <mxPoint x="1200" y="428.4868421052631" as="sourcePoint" />
            <mxPoint x="1244" y="428" as="targetPoint" />
          </mxGeometry>
        </mxCell>
        <mxCell id="6h07Z5NQ0SASVdav4_DB-295" value="" style="verticalAlign=top;verticalLabelPosition=bottom;labelPosition=center;align=center;html=1;fillColor=#fad7ac;strokeColor=#b46504;gradientDirection=north;strokeWidth=2;shape=mxgraph.networks.satellite;rounded=1;shadow=0;comic=0;" vertex="1" parent="1">
          <mxGeometry x="996" y="132" width="100" height="100" as="geometry" />
        </mxCell>
        <mxCell id="6h07Z5NQ0SASVdav4_DB-316" value="" style="shape=image;verticalLabelPosition=bottom;verticalAlign=top;imageAspect=0;aspect=fixed;image=data:image/svg+xml,PHN2ZyB4bWxucz0iaHR0cDovL3d3dy53My5vcmcvMjAwMC9zdmciIHZlcnNpb249IjEiIHZpZXdCb3g9IjAgMCA0OCA0OCIgZW5hYmxlLWJhY2tncm91bmQ9Im5ldyAwIDAgNDggNDgiPiYjeGE7ICAgIDxwYXRoIGZpbGw9IiMzNzQ3NEYiIGQ9Ik00LDM5VjdjMC0yLjIsMS44LTQsNC00aDIyYzIuMiwwLDQsMS44LDQsNHYzMmMwLDIuMi0xLjgsNC00LDRIOEM1LjgsNDMsNCw0MS4yLDQsMzl6Ii8+JiN4YTsgICAgPHBhdGggZmlsbD0iI0JCREVGQiIgZD0iTTMwLDZIOEM3LjQsNiw3LDYuNCw3LDd2MjljMCwwLjYsMC40LDEsMSwxaDIyYzAuNiwwLDEtMC40LDEtMVY3QzMxLDYuNCwzMC42LDYsMzAsNnoiLz4mI3hhOyAgICA8cmVjdCB4PSIxNSIgeT0iMzkiIGZpbGw9IiM3ODkwOUMiIHdpZHRoPSI2IiBoZWlnaHQ9IjIiLz4mI3hhOyAgICA8cGF0aCBmaWxsPSIjRTM4OTM5IiBkPSJNMjQsNDFWMTdjMC0yLjIsMS44LTQsNC00aDEyYzIuMiwwLDQsMS44LDQsNHYyNGMwLDIuMi0xLjgsNC00LDRIMjhDMjUuOCw0NSwyNCw0My4yLDI0LDQxeiIvPiYjeGE7ICAgIDxwYXRoIGZpbGw9IiNGRkYzRTAiIGQ9Ik00MCwxNkgyOGMtMC42LDAtMSwwLjQtMSwxdjIyYzAsMC42LDAuNCwxLDEsMWgxMmMwLjYsMCwxLTAuNCwxLTFWMTdDNDEsMTYuNCw0MC42LDE2LDQwLDE2eiIvPiYjeGE7ICAgIDxjaXJjbGUgZmlsbD0iI0E2NjQyQSIgY3g9IjM0IiBjeT0iNDIuNSIgcj0iMS41Ii8+JiN4YTs8L3N2Zz4=;labelBackgroundColor=#ffffff;" vertex="1" parent="1">
          <mxGeometry x="1006" y="627" width="80" height="80" as="geometry" />
        </mxCell>
        <mxCell id="6h07Z5NQ0SASVdav4_DB-334" value="Настройки" style="text;html=1;align=left;verticalAlign=middle;resizable=0;points=[];autosize=1;strokeColor=none;fillColor=none;fontFamily=gotham pro;fontSource=https%3A%2F%2Ffonts.googleapis.com%2Fcss%3Ffamily%3Dgotham%2Bpro;fontSize=20;fontStyle=2" vertex="1" parent="1">
          <mxGeometry x="1068" y="545" width="130" height="37" as="geometry" />
        </mxCell>
        <mxCell id="6h07Z5NQ0SASVdav4_DB-340" value="" style="shape=image;imageAspect=0;aspect=fixed;verticalLabelPosition=bottom;verticalAlign=top;image=data:image/png,iVBORw0KGgoAAAANSUhEUgAAAYgAAADFCAYAAABO8mUgAAAABHNCSVQICAgIfAhkiAAAAAlwSFlzAAAewgAAHsIBbtB1PgAAABl0RVh0U29mdHdhcmUAd3d3Lmlua3NjYXBlLm9yZ5vuPBoAACAASURBVHic7J13eFPV+8DfO7Ka2aZJ2qa7QFtaWlpG2XsP2ciQL1OGAxFRAUGGojgYooAoiOIAAZUpe8mQWUbLptCZzrRNmzT73t8fsdCR3JsuBX7n8zw8D2lu7jn3nnvPe847MXCNDAD6A0BPAAgCAAUAEAzHIxAIBOLpxw4AeQCQBgBHAWAfAOicHYi5+NsIAHgHAIQN1EEEAoFAPB2YAGAtAHwHAFTFL6oKCC4AfAEAXf6VbiEQCATiaeEYALwJANbyP1RUGREA8CUg4YBAIBD/HwkFgAgAOAgANEBlATEVAEb9B51CIBAIxNNBCDhUTokAT1RMYQDwBwBw/qNOIRAIBOLpwAIAgwHgEf7PH6YAEg4IBAKBcNiiJwM4dhByADj+zx8RCAQCgbAAQDccADoBEg4IBAKBeAIXANrjAJDwX/cEgUAgEE8dCTg43JoQCAQCgahIUxwcNggEAoFAICrihYMj5xICgUAgEBXxwgGA/K97gUAgEIinDhJnPwaBQCAQ/x9BAgKBQCAQTkECAoFAIBBOQQICgUAgEE5BAgKBQCAQTkECAoFAIBBOQQICgUAgEE5BAgKBQCAQTkECAoFAIBBOQQICgUAgEE5BAgKBQCAQTkECAoFAIBBOQQICgUAgEE5BAgKBQCAQTkECAoFAIBBOQQICgUAgEE5BAgKBQCAQTkECAoFAIBBOQQICgUAgEE5BAgKBQCAQTkECAoFAIBBOQQICgUAgEE5BAgKBQCAQTkECAoFAIBBOQQICgUAgEE5BAgKBQCAQTkECAoFAIBBOQQICgUAgEE5BAgKBQCAQTkECAoFAIBBO+X8hIDAMg8+WzfEOClST/3VfEAgE4lnhuRcQGIbB5g0fqt6aNcH75KHNgYEBfkhIIBAIhBs89wLim7VLVONfGuwJABAcpOYeP/BdoFIhJ/7rfiEQCMTTznMtIGZMHSWdMmGYZ8W/hYUGcH/f9oUfh0Ni/1W/EAgE4lmAAIDX/utONARdOycIfvruEzVBEI8FAYY5/hsY4MtVeHvh+w+eMvxnHUQgEIinnOdSQIhEAvzw3o2Bci9pJVVSuYAAAGgRHyW4euO28e69VOu/3kEEAoF4BnguVUwrP5mrCAr05TAdg2EYrF210EciET2X9wCBQCDqynM3OSa0iuFPHj/Uk/1IAH+1ivPBwtflDd0nBAKBeBZ57gTER0vf8MZx9y9r6uQRXig+AoFAIKrzXAmILh1bC7p1biOqyW/4fB62YO40tItAIBCIKjxXAmL2zP+5pVqqypiR/aUymeS5uhcIBAJRV56bSdHPV0H06dVR7Oy7lIcZlnPnrxmSku+bzGYLXfV7Dw8+PmX8MEnD9xKBQCCeHZ4bATFh3BBJ1eC3Hb8f0kU075/SKLrPww7dX8qIaT04VRnU8f78RatzS/UGquKxY0b1l/67PUYgEIinGwwAbv/XnagPzh3/ObBtm+Ye5Z/nLliZ+8nKTUXln3EcB4p6IhNiY8K5x/78LkjuJSMAACiKguCIng8yMnNs/2rHEQgE4inludhByGQSvHWrGEH55193HtCVC4fBA7sLr53/LdhUdDU8N+2vRps3LFOJxUL8+o27lolT39OU/wbHcRjyQs8aGbgRCATieea52EEMGthVuOvXrwIAAGiahiYx/VIepKRbB/TtLNy1/csAgqicm+/MuURDp57/y6BpGi78tS2wdctmHgAA2387qHtx3FvZ/8EluI1IJMLFYjFGkiSGYRiYTCbaZDLRZrOZNpvN1ewr9QVJkiASiXCBQIDx+XzMarWC1Wqli4uLqYZstyp8Ph8r7wcAQPl1l5SUUDT9r3XjmcPZ+FksFlqn0/2r44dwDY7jwOVyMT6fj3G5XIzL5WIEQUD5+200Ghv0HXfGc+H/375N/OPdw70HqeYHKelWAIAFc6fLqwoHAIAO7eKFPbq19Thy7FzZwcNnDOUComV8lKDawf8xKpWKaNWyBa9b1/YeTSPDeZ4yESEW8XGSJDAMAzCZrLTJbKXMFhtkZeVar11PNp2/mGi6efOWJS8vz17bdjkcDtaoUSOyR/fOwhbxzfjBQf4cidgD5/M4GI/HxS0WK2WnKCgqLrNrNLm2U6fPl50+87fx9u3bFputfrV0AQEBZO/e3T06d2zjERYawBV68DGBgItTdhosFhttsdroAm2J7f6Dh5a/z182XryUaE5NTbWy9UMgEGCenp6Mu2iLxQIFBQW1vo/OwDAMfH19WTMK5+Tk2CuqRWsCh8PBGjduzOnRvbNHfFx0pfHj83m42Wx5PH5ZmhzbX6f/Nvx1+rzpzp07tR4/DoeDKRQKVq2EXq+nS0pKnF6YTCbDPTw8WBNpZmdn2+u6IFCpVISz+aE+MBgMtE6nc3qN3t7ehFKpJJRKBdE0sgk3vEkoNyQ4kCORiAkel8Q4HBLjckiMyyUxgiAws8VCmUxW2myx0hmZOdaLF64a/754xXTz5k2Lq/tYXzwXAiIiPJRX/n9Ndv7jpzsqshHf1W9aNG/KO3LsXFl6puZxLqagQD8un8/DTKb/dkWF4zjExcXxpk8dL2vXppkgvJGaR+AUBjTLPNUqFEYO6SC1WIG6eTfDfP78NeN3P2zVJSYmmt2daKRSKT5s6CDR2NFDJFERAXyVQkI62mX6fSiMHNJJmpVTZL105Y5xzdpNRWfOnDVZrdY63cfAwEDynTkzvXp1TxA2DvXhAW1j6Ic/9O7WDF55eQikpudbric9MG3cvLX42LHjRlerru5du3h8/ul8JU1RLvt590GG5cXRk7Prc+U2bNhg0ZKFbyhwDHN5zqRbD80vjp5U492sTCbDhw0bJBo7arAkKiKQr/QWuzV+Lw7pLM3ILrJeunKnbM1X3xSfPfu3saaCIjAwkNy57Rs/Ps91pmQMx7EJU97WnD9/3uzs+6WL58p7dmsrZGon8fo909hxL+fUqHNV4PF42A+bv/IN8lfW+xyIEwT22qxFuUeOHCtz9v3Hy973fqFfe7G3XErgGI0B2IH13S6nZSi8OKSTtNRgoa4nPzJu/mGHbsfO3/WlpaUNIiieCwERFhLwOO+SRPwkt1JevtYmEnlwnf0mS5NrAwCQSZ7EPxAEAZHhodyr1287fXj/DUJDQ8kF89/0fqFfB5FcxicdL7YVwK3piQKgKeCSgMdF+QjiogcI+vbpKB4yYmrmtWvXGK+Jy+Vio0eNEL0y7SXPFrGhAgK3OV5y2p1chhQAbQa1yoOj7t+S07FdjMcvOw7pPlz2eWFtdjE4jsPI4UNFC+a/qogK9+UBbQegLSy/ogFoG+AAEBoo5YYGtuJ279JC9MW6rdr3F32odfaLtu1a8MPDvHlAu363VEopJyoqipOYmMjWAbcIDQ0lP3h/lndEI2+e66MwOPP31bKarJB5PB42ZvQI8fSpY2UtY8MEOGat8fgF+HhwAga0knZu30z407aDumUfryjMz893e/yaNArlxEYFCDBw3WZGdqlVo9E4PSeGYdAsKpwf0cjb5cIOAIOjJ87XOQuzSqUiosIDeP6+YsacbbVBW2y2paamO70JHA4Hi4oM4SnlfBLA7OZ7XREKgLaA2APwDq1Dha3j3xP07tm5dM67i/IzMjLq3cHmuTBSe3vLHgu6qMgwvlgsxAEAdu89XurseF1Jqf3A4dNlAADt28Z5VPzOR/XfFBPCcRzGjhkpOrDn+4CJY3vK5DIuybzqcwPaBgUFWtuDBw8YZ4nQ0FDypx/W+3y95j3f1nGBHo+FQ63apEAuI8lXXx4s3/TNapVaXbM0JjiOw5y3XvfcsPZ9v6gmSp7bK6tqUODBJ7AriddMro5oGt6YUTgAAHhKBcSwoQOcxtfUFKFQiK1Z9YEqopGSYQIEAIyAxKvJbi9SwsLCyJ+2fO2zfvV7Pq2bB3o8Fg61gbaDXMYhX58+VL5xw2qVn5+f2+9DmzYt+BjGfD812Vpbbm6u00H19vYm/Hw8mZ8XjITLV1yPqbsEBweTfj5eDbJAzszS2nJycpxeo1KpJHx95PXULg1c0oqPHNJBun7tp0pvb+96n7ueCwEhEgofXwefz8NenzFWCgAwb9Hqgn0HTlUSEsW6EvuY8W9nFWiL7UGBarJv706VPJekEvG/fk94PB62ZPE8+fo1C/2ahMrrMClWBYeLl5PL9Hq9y7e2ffu2/N07N/qPGNROyufS9XbtOFhhQO+Wki9WfqSUSNyPUn9r1mueC+dOUUiERJ37cv1mmun48VNGZ9/xeDzM19ebffVI26BblzZCsbjuz8Xbb73u1ad7vJhN8FttQLs7CXbp0lGw5/eN/sMHtpHyuFS9jt8LfVtJVq/4UOnutUdGNuGzPbsaTYHVlbrO19eX8PdXMI6J0WSjrl67WecdfkLrWD6OUw1SNCw7p9DqSuXj768m/f3k9btroa3Qt0cLyVtvviar1/PCcyAgSJIEgYBX6Trmvz1V0TIummc2W+iBw17JSug06tHMOR/njHxpdmZYZJ+UPw+dLuNyOdjPmz/x5fO5lX4rkf67AoLH42GfLl/s/c4bY73FHjXIMugGFitGbdu+S+/q+8GDBgp/+WG1OjpCxa/zbsUZtBUG9W8jfv3VaW49uAkJrflvvTHOSySoh/uAEXDk6FmDqxdVpVIRfr7ureRimgbz4+KaO1VVukvvXj08Xp02wpPA2e9zRlaBNStLw6ouGDZssGjLps/9mjZWNtj4DR7QXvLKjJdZg0i5XC4WoGbR52M43L533+XkHtc8iufB5zCOfUZmnjU7O7vOK6iY6ChWYVY7MHjwMNWlOjKhdRyPJKDeBRMOVhg+pKc0JCSkXndFz7yAEIk88IqFgAAAhEIBfvTAxsDRI/uLAQAuXk4yf7nup+Idvx/SFxbrqMaNgjinDm8JaN82rpoxTCz0+NfuCY7jsHTJPPmMyYO9uBy63h+aG7cema9eve70hezSpbPgixXv+QT6iepdB1sRErdh48cNloaFhTG2IxAIsI8/eFehUgjrpT95BXrb9z/+qnP1fVBQAKl2U8XgIcDx0SMH1zoVi1qtJj5ZNlfp7cl3q73s3EIrm+2mR/euHqs/m6cK8G3Y8eMQNmziuMEytonHoTrxYukLCRcvud4ZtWzRnO9wRHCNJqfIptVq6zSz4zgOAQE+DXPfWFRgcbHRDSSYAMJClNyO7dt4sB/pPs+8gDAaTU63q1KJmPjl+0/VtxL3Bq/+dK7irZkTZIvee8Xrz10b1MmXd4e2aR3j9EYa/0U/48mT/id59eVhXhyyIba6rtVLjRs35mz46gOfQL/6N9A5o3GIgjd2zHBGPX6f3j2F7dtEetTCaueU85dvl927d8+l7SWhdTwfx90UyrQd2iQ0FygUihrreLlcLrZqxVJlbJSa2e5QgczMHBuTB1F4eBPuujVLffx9GlY4PG6vkQ9v9KihjOPn768m1Sw7ssLiUvvt2/dcrq7DQoK4bOOflqGx1tb1txyHraNh7A9MKjAMwyAoyI/DeI0YCYBxAXAeAMZzfHYTjLZCv77dGT3Aasoz78VkNltoi8VKc7kcpy97ZEQoPzIilE9RFLhTJ6JE1zDuYlWJiWnGXThvukJYI3UKBoBxwGqjab2hjKJpoPk8Hu7hwcUdnj42KH/4XKmXBAIBtvLzRcomod48tydjjASKJqBUX2bHAAOJxIMA2uq+ax5thb69OotWrPyqyGAwVGuUJEl4efIoKZdkm7BxKNSZbanp+Vaz2UpxOATmKROTAWpvkssBvPz6KZqkt/z4WwmTF1BMs0jW1WpFosLV/DYJLfl79x2okQfNG69Plw3u11bitgoIIyDp5h2XK1ChUIit+nyxonGInHUyfXJOx/iVlBrsOIbXavz69ekqWrV6XbHRaHTaaEKreD5JAMbUpcwsrdWV8VYsFuN+viy6eYyEG0m36myg9vPzIwLUCk5DqOWYVGByuZzwVTHvsk6du2PY9P224tISAyUSeeAxzSJ5nTu1EbZqHsLoHeaABpWyfp1snnkBAQBQqjfY5V6yerkWXYlrg259IRAIsE8+WqAI8JUwrybKwUi4cz/bdOXaPdPhIycMd+89tJaVlVEYhgGXy8X81X5kTEwkr2WLWEFYiB8nLNiXe/NOmlP10szXp8n6dm8pAmCfHOw0AVeuPSo7fvJvw58Hj5fpdCV2giAwpVJBvDj8BXGPbgkih4qD/ZY1aeTHDQkJ4SQnJ1dbQQYEBJDNo13HrDjuAQG7918oWfzhKm1qaqrVZDLRXC4XUygURECAP9mze2dhm4R4QXhjf662sMR29NgJpz7oAA4VQ2CAX41W3xySxkaPGiauiYDo2LEd/83XXvLisAq+J9BAwIWLrlUUM1+f7tmraxyroRvAMX6Xrz4sO3binOHg4VMGnU5HlY/fqJGDJD27JQjVKqF74xfmxwsJCeHcunXL6Q4gPj6a1blCk11gcxXY5ePjQ/irmXcgFIXTFy5erbOAiI+P4fN5BM7kwZadZ7Ql306rcVtZmnyXKjDHNTIZ4TG4eeue6ccft1Z0rCn19fUtWr3iQ+XIIR2kbIsaPp+Lc7lczGKpnrW6NjwXAiI1TWOtLwFx975rA1N9MerFYaIenWPdmqSz8wy2b7//o3DDNz/oXPmPX74M5l279xgwDAO1Wk22bBnPCwoK4FRVLwUEBJCTxw/zJHA764SVk19m+2LdVu269Rt1zl7qQ4cOl3Xt2qXky1WLVVFNlHw2QeclE5KxsdFcZwKiVcs4vq+PjMPks590K9M0edrs3Iovn8lkoktKSqiUlBTryZOnjFwuFwsPD+cEBQVwXEWxAtRWxUBBfGxjgb+/P5mZmcm69VAoFMTnyxeofFU1s6nk5RZbU1IeOr0RQUFB5JQJQ2XuGLo1OQbb6rU/a7/+5judM0P9oUOHy3r06OaxZuViZWQjb9bxU8jFZHRUBNeZgMAwDAL8fVh2NBikPEp3aaAOb9yIK/cUk0zxLpnZBbb09Lr7+reKj2HdPd65n2bq3W94Zn2mb2keG8UTeXBxl885RsLlxOqLuuzsbPvSZSu1ndrHCH0UHozPLUniWH1Ghz/zNggAgHv3U1nd3h4+yjTbbHbG0TaZzHR5mo6GQiKR4NNfHuNFEmyTNAa37+ebXpr4btaixR8XuhIOFaFpGjIzM227du0xrFmzrrjq9/PenenZOMSb1RsnI7vUOmPm0uzln6wsYgrlP3HipHHBopX5RSVWN3QVdoiNjnC6S+jWtb0H2wubdPOhic04abFY6KSkJMu+fX8yrvKfqBhqRuMwX163rh1Z07GQJAmffbJI0To+tMapWzJzClz60L83b5ZXaKAX6/ila0qtM95YrPlsxRdFTBG2R48eL3t/yaoCnd7m1vjFxEQ5HT+HwGXxCMNIuJJ4w+V7mtAmjg/A/Axk57Ab790hJCSQZeeOQWpqlrW+c3u1bBHLaKA2mmxUYmKS011LamqqNVNTwDo3lepNlCs1YG14LgQEQeCMk+2O3w/peg2YkjFmwttZTINutlgoiUTUoPdk8OCBwpbNw1gNlumaEsvEqe/kHD9xwqkfPxtVrzMgIIDs07Mdq2rCYKSpBUu+zNu1e69bqpT9fx4oO3/5bhmwee7RFChVCqeTiK+vkmRbwSqVclIoFNaLMb9FuYqhhuBgg+HDBojZbFlTJk+QjhzcRVIbbxVNttbq7AUPDAwke3Vvwzp+eiNNLVi8Om/P3j9dqtgqsmfvfsOFy3eN7oyfj8q5kZ5ddfLP5Hc12aXKJioinDVoMSMzz1bXlCdSqRT3Y/O2wgi4duNmnVVZVWnUKIjLNH6ZmgKX9guKogBjSM1STnFRSb26SD3zAmJgvy7CEUN7u/TTNpks1KGjZwwPbh5s1KNrW49DR886ja4GcHg+rV+9UNUwPXWE2Y9/aagUx5gjlc1WjF649Mv8Cxcu1ttDOnHCaElIoJxl9YnDz9sPF//001aX96gqVquV3rP3sJ7d24IGiUjo9HmTiMWse+JO7aI95s97y6s+AtZaxDfj1cRA/QQamjdrxA8NDXU5wcTFNefNnTPZW8DHatFPHO7eS3GqY5ky+SVpkL8n68T2w89/Fv/8y3a3x89isdD7/zzm1vhJXcQIxTWP5gkFLPELWfkuJz8ul4v5sQWPYQTcvnuvzu+DSqUi/NXMbdnsQF+8xJyapqaIRCLcz8f5AqkcTU6hzVViSE9PT9xTJmYZJBwysjT1qgF5pgWESCTAv/lqiU/VOIiKnD2fWDZ6ZH8JjuPwv7GDZPsPnHIZOAYAMGpkP+nggfXrKlZOZGQkt0VsGIvaAYOjJ6/qf/11J2M/awKfz8f69e4kYlvRPkzXmj/8aFVhTd0IryReN1msrhPesWGz2Vh/yyVt+JyZY+WbN631iYmJqVPQWmhwoPseQFUI8PPiDuzX2+nzIZPJ8DUrlyqD1NLauZ9iBFy8dL3aJCgQCLA+PToI2cbvXkqe5aPlq7U1Hb+Ll6+arDZ2fYqrt6xlixj2COqcIpeTn0qlYldRAQGXLjmP6akJTZuGcz2lIsYFSaZGa83IYLcz1QSVSkX4+zHvXNLSsly68DaLasoNDmDepdFAwPETZ93aObrLM22knjFltNTHhzldwvUbd03jXxrkCeCw8Juc1KSuynvvTvPetfdYnROCVWX0i4NEUgmPYNpKmy0YtfKLjYX1mT00OjqKG900hEWthcMfe06U1ibhV2FhIVVUpLepFAKWlZlzG1BpqcGtGY1L2vBhA1tL4mI28L7etL3ou++2lNY0aEoqlbK7UzJBW6B//26itV9/q6voKYLjOHy4dL53hzZNWCdyV5QazFTyzeqJImNjY7jRkUGsXl6/7z5a4o6tqipabaG9WKe3K7yYA/ksFueCPCyUWXUCAJCe7nryCwwMIB0CwvXiV1tYart9x3UMhbsktGIPxhPw+fhPP6z3dfec2bkF1slTXs1l0v2HNwnjeHtJXF8jRkJS8m2XO6SxY9k1D4/S8y2XLifWq2rsmRUQJEnCq9NHe7Idl5tbYC8vKwoAQLPoOQEcdSG6dk4QnDh1oVb6f2dgGAbxcTF8Nj1r4o0Hpr//Pl+vgzxi2ACxkI/jTC9xkc5k/36L68hjJtwz5uGQnZPn9M28ei3ZNGRAG4lbah/aDqGBEt7Hi19RDRrQQ/LBR18UHD58xO3Mp46VHLs6g2mSb94slB8REcG5cePG4wlrzOgR4v+N6SNz/bvyzbrrMcjIzLc4S2Q3fGh/sYBl/LSFZbYtP+1o0PHLyc2tNkBisRhXsyzS2Ca/tgnxfIKgWWIoClwm+asJkeGNeWzCTOXNI1XeYW7PjXsO6UrYDMOtW8c5Ehm6OIqiMPrCJecuvC1btuD16tZKxGZYv3TllrE2CwQmnlkVU5+e7YVBgX6sqgY+n1dJ6nK5XLcMndMmj6jXxFdKpZIIC/FhtQH8dfpyWX16IWAYBvHNo1lfimvJD0137typlf6SJEngcFkstxgO6elZTs9/4NAJQ16BoUY7FwKzYO1bhXps2fiJ37y5czxFIvecCyIjmnA9Zcwqhpt380yAuZ7z5J4e5IhhLzxO8hgREcFdsnCmQuzhyvCNQWJSppFiWY9l52hthYWFlQYKwzBoHtuUNdfStaSHprt379Zq/AiCAC7XdQ0HR0dwSE3LqHZ+lUpF+Pt7s8QvYPTfF1yvbJtFswctZjEkwHMXPp+PqdXMdoCag8Pduw9ZdzZNI8IZ1XBZOYW21NT0ajdBrVaTa1YsUaq8hYz9LjXYqPXf/FDNc7GuPLMCYvALPdyqH11bV7We3duKSLL+nqWoqEhucICSUUBQNEEfPnaqXlVbCoWCCA5SsQgmDJKS75lqW0lMofAmZCx6XQAcHqSkOp3Arl27Zj568oobhtKqUKCUc8n3505RrP3yc7fSHbdJiGOejDAC/jpzuSwzu9j1ZEvboFvXNqJ/yr/ia1YtVYYGerq8x1k5euup01fKcMZU2Bg8TM2sNtH4+PgQwYHsC4vrSbdNtU1B4eOjIiRiD9bxu3+venxGRJPGjvgFBjKztS7jF3Ach8BANYvKD4OUh4/qrF5SqVSEWlXPmVQxAi5eZs68y+VysQCWwkSa7AJbRRdemUyGDxs6WLjn983qtq3ChGy7h6MnE0vPnj1fbxqPcp5ZFVO/Xh3dEhAkWXllVPWzK7w8ZUTnji0Fx07Uz03v2b2TB8GSXjg1I996px70rBUJCgokA/2VXMagPIwDx0/W3rgVHRXBwzGa8Rk2mqzUIxdFVGw2G7y/eLk2OjKMH9PUt8aZSXkcG/7Si91kNL0UXn397Vxn6TzKYVcxEPDnn0cMgYF+HH+fGJf+8jFRIfzY2BjuoIG9Rd07NRO5OqfVhtMrVn+vjYqOYI40xgi4kphUzf4QHBzECQpQcBhjBDASjp04W+vnNCYqgoexuc8aTFRaRla1TjjiF5i1GkzxC+7XgLhRDzUgAjlKlZT5XtYQXamRunnzDqPx3J1EhgKBEPt67UolyeFgnjIJ4ecrJ6PCA3hcjp1RtQgAkK4psS5YtFxb36V+AZ7RHURYaADH19e9QCeJWIgbjebHd5isQeqjrp1b11tmRHcMeQXaYrtWq63XVB/NmjXlcTnMcSIGo4V68OBRrd3j2rVpIWAzzD54qLGkpaW5fIJTUlKss95emvsgtchcm8cSByuMHt5dMnXqBJcuzzweD/PzZVaHaAtLbXfu3bf89vu+UppBzSTyIPB578z0enniYC/XOwMcfttzumTdhk26YJYkbRYLRV9JrD4JNouO5LKlh9aVllGPHqXVemGR0KaFgE3Fc/9htsWZA0NkRBPWFBuZmjyXNSB8fHyIAD9mG4YjAZ77BZRc0SahBZ/A6zf4LTNTa2FLP+5OIsOYSB/+hDHdPF8a0VHWv2czcVy0n8AhHJgpM9HU8hUbiQTh0QAAIABJREFUC27dutMgGSCeSQHRoV2825kxveRSIjev4PGDbapBjpJW8dE1joR1hVwuY1V/FBaW2OvTewkAIKJJGJftBc7LL7YVFRXVyrjF4/Gw8CZBrIn/7qdkmJnSXwA4IrMnT383+/L1DCOTDcAVXNKGTxo3XOaqCto/NSAYT5yeVWDNzc21Hzv+V9mDh7muXzraDv17xUtkYtLlO5R8R2Oa8+6SPKFQiLG5cWZotFaNpnoNiIjwMC6bY0OBtsRaXFxcq4WFQCDAwhsFsNryHqRkmKvaALhcLubvx6LTxwi4fee+y/vYIr4ZX8ASQ5GemecyyV9NiIluWo/FuBxocrU2tnv/OJEhI1SFf+5htgK9Zv127YYN39XKOcEdnkkB0bxZ9ZQNen0Z9cmKjQUmk6XSHZZ7eRI5udrHL56zJFZbftldfOfeo2orlGZRTRjqBruPUCjE2HX0ACaTtd4TBQYE+LEmY7OYLbTVWrsNRPPmsdyoyGDm+4SRcObsJbdUIH/9ddo0fNTLWRu3HCws1NlsNX1EoyL9+d26dnS68wsODiZ9VDJGAZGdU2grLS2l0tPTbddu3DMyts+QO6pQZ7bPmbc8Lysry+7j40Oq/ZiDFF3VgAjwd2P8LLY6jF9zXlQEmwstCafPXqimglSpVG7UgCDgIkPywZYtYlmDFrProQYESZJu1oDA3f+HEfAoNZ115d48NqreBZPBSFOr1+3QLlqyvMZxSzXhmbRBBAdVNmodOnq2dOqri3PTMzS24CA158XhfR+rGVRKOZmRkW0FcNSi9pRKK73xen0Z9dqby/JMJjM9960pnu+9O03B4zk8nZRKLw6Xy8EsFmudw/vdERAE80KqVnh48FltLnQdClyNHzdCIhIQjHrSEr2ZOnr8tNs2jrS0NNsrr72Vv+O3zvp33nrFq1PbKCGHdK9ONkbboFvXDsKffv61WjRx24Q4AYEz2UowePDgiTF066+7S4YMbC8ha1iakqJx2PDdH4WHDh0pAwCIiYniSUR810naACAjI9tpDQiBwI3xq0POoAn/GyFxRH27PoeuxGQ/dvxMtfELCPAn1WzxC0Wltjt3Xe8gQkPYghYxSE3LstR1EnSk2mZJ6Ilx4Nc/Tut0OvfTVezZe5QxoNVRA8K31oGZ1cEhXVNiXf75twXfbvxe1xB2h4o8kwLC39+xEqAoCj7+/Nv8hUu+1Ja/JGu//qVo5LA+0vLoal8fBXnh0vUyAICc3AKb2k9ZSbhs23lAVx6o9cHyrwv/OnPZuOOXVWqFtxdJEAQEB6nJe/ede9+4C5/PxwU85/UqKiIRiwmSJKE+B53H4bJKHanEg5BIJHh+fn6NljlBQUFk357tWfMDXUq8V1ZTF1qr1UofPny07OLFy6ZxL40ST5syyjMq3I/PNMk6oECplDu95mbRkSyGYhIuVagGdvbc36Y79zTm6Ail2ypNAAwOHL1a+tHHq4rK/9K6ZSyrgTrZRQ0IHpd91SCRCAmJRIK7ilR2RVhYGNm7R1sW/3qAS1fuOS2+1Mat+AWty+SDEokE9/Nhj0m5dr3uNajVajXh78dcA0JvsFBLP1yhdZXSvDbI5XI3osTd51GGzjL6fzM19ZmGh4lnUsXk76fimM0WeuyEdzIXLF6jrbiCOn0u0bR77/GS8s9KhRepyc63AQBosvNtfn5P3M1KSvX2BYvXFFQ896kzl42tOoxKLVc5hQT719ktDsMwwJntxAAAoPaVc3x9fetVaDP7FjlQKTyJwMDAGrWL4zjMn/uGV3CAa/dOR/skbNu+t8Rqrd0urLi4mPryq691g4ZNzvr1j9M6O83eTRKvHo/gKDPpyziWBqOVqjgZ5eXl2S9dSTYC5n765EcZxZbZby/Oq5hqvUnjEEbPKYrG4byLOgfu7A58lJ6kv7+6RjmecRyHee/O9ApSy9hcr+HnX3eVOFu0xDRr6kaKDa3L+IV/akAwjondjtEXL9e9BkSLFjF8Po/ZQyUjK89aH8F4FfH19SUC/GueOdgVKqWE5PNrsF6pI8+cgCBJEuRyGTFx6ntZ23YecLq9m/XOJ3l6fRkFAMDhkJjZ5LA7pDzMsFSc8D/8eENBbl71VVdaepatR79JGalpWZagQL86T9gWi4U2mtknyJAgBXfggL71mgfKZGQ3euO4HRszajBjScmqjBw+RDRqWHcZ2+7h9r0s0+49zOm33SElJcX62sx3885euMt6Ll2pvtqYKhQKQu3LXAMiw4kx9Odtv5eazO5ZDg1Gmlr0wZr8iqttoVCI+bIkacvLK7Y+epTmdGtUZmIfP5KgsNEjh9SoZvaLLw4XjxzSlXX8bt3NMu3dd7CaegnDMAgKVLOmzU556Lq+SniTRlwvGXOixszsAlt95EVqEdeMVZhl5xRZCwsL61VANG8ezfPgM+wCMRKSbueYriZrjFeTNcasXCPjFtmDj+NjRtW+PnpNeeYEhEQkxFeu+V67dcefLnV/aelZttdmf5hd/pkkCQwA4O7dR+YmjYN4AAAnT18yfP7F5iJX58jS5NmGjnojq/y3daGsrIzW602skwyB2WDKpBc9w8LC6m3FUVSss7OncrZDt86tRbGxsW4lwevWtbPHsqWzlRKRaw8eAADACDh45KyeSXVVk2DEgoICe0YGW7ZKHNJSq0f8qtVqQu3L7E6ZnVtorWoMvXw50ZR8O41dxYER8PP2w8Vbt+2sZPvw8fEh2ZK0ZWa7LsXp0Iezj1/P7m1E0dHRbo1fzx7dPD5a8qZCLGRJeY4RcODQab0zA7FCoXArfuHS5erJB8tp0yb+X6sBERbMXgPiYWpmvdeAaN0yljEw02iyUy+/Mj+7W68RGd16jcjYs+9kKTAlAqbtkNAqtlb10WvDMycg9GVl9IIlXxawHffDT7tLN2zcXph8875JV2qgTCYznZObb8/IyLFeupJsHDvhbQ3bw3D1+m3z5i1/lDAe5AZFRUX2Aq17hq+4aDX/268/V7Vo0cJtDyqxWIy3a9eWHxAQUO2FTUq+Y3YnQjk0yJP7+SfvK5mEE5/PxyZPHi/Z/O2nPqGBzKoJAIB7KbnmFavWuxTCISEh5Pq1q1QJCQk8d2o9NGrUiGwRF8Hoemyz4/SBwyeq7TLYVQzOi8TodDrqzLnLBmY1EwZnLtw3zF+wrFqwUmhoCKmQS1ijaF2lV0lOvmt2R8UVFuzFXfHpIiVTKnKBQIBNfXmCdNOGj32D/SWs43f7Xo551ZoNTsevPuIXmoY3Zq0BkZmVa61r+UyZTIazelthBFy/Vv81IMJCghkN1OmZedaUlBRbcXExVVxcTB0++peBopnHOyoigN+ubZt/Rc/0zBmpa+JRNH3mkrzy/0+ZMEx28MiZsm07D5Y606dKpWK8X+9OQj8fBfHgUZr16PHzZQaDkTYaTXVeUlAUBSmP0i1d2ocLWf2caTt07RAp2rltHe/w0fP6PfsOlqamptv0ej1FURRwOBzMw8MD8/SUEc1jo7jt27byCAsN4KpUcrJbr1HpVU934VKiyWKlaC7Jsgyl7dCjc7Tot23fkNt27tcdPHS8rKSkhKJpmhaLxXiHDgmCIQN7izu2ayrkcdhrLNspgv76m1+LmJKHzZg2QTblf308h7zQUXzrTqb55F9/lx06fNKQkZFhKyoqooxGIyUQCHCZTIZ36dxeMGfWFHlEIyVjzMWDRxpLUtLNamoNVhUDQ5GYrb/u0k8cN9BTKnJeyzErR299652l+c5W2m3bxAuYkrQ5cvk4rwEBAHDx8nWj1QY0h82PnrZDr64xot9+3Uhs3ban5PCxk5XGr3OntoJBA3uJO7ZtKuSS7F5ZNjtOr/9ma5GrILDH8QsMTgNM8Qs8Hg/zZcuqixHg76/mbPtlk9uZVQEAdLpS+4L3l2nLd64qlYpQs9g6ACOge/eOwg4dE2ocHHv9xi3Tx8tXVBOkYrGYNXNwVra2kgtv8s1bFk1OkdXfR+TydyRux0a/OEiye497Rb3qwjMnICoS4O9DDnmhp6hrp1YeQUF+HC9PGYlhGOh0pfaft+3VfbJy0+NB2/HbwZICbbF9QN/OwuimjbnLV2wsAgCQSET4R0vekE8cN9TTw4P/eIWp15dRO/84rHv/gy+1GZk5ddaB7tt/VD9xbF8ZjlnYVVa0HYLVIs7UCX08J43rJyvQ6ux6g4miaZrmcEhMLOLjnjIxgWMU5ti+0pCZrbc6MwTfu3ffeutupql5lC970B9tg9goH35s9Az+u7PH27WFejuGYeDlKSRkEgHhmAzckZcYHDyWqP/6280uA3iUSiUxsF8nMdAWkEs5ZMeEELJjmybCt98YJ0/LyLPqSgyUyWyjBHwOJpMKybAQFRcHtvZxOH3umsGZN09IcADjSo6pSExSUrI56Va6qUNC42r2IauNples+aHw4sVLToVLVCRLpDFLLp/bt29b79zLNDeL9GFfMdI2aB7lI2j+4auCuW9PtBcWORs/d8wpGBw4eln/7aYfXI5fi/gY1vgFTY7WZfyCUqkk2KLagbZDm/hAjzbxgW70+QlnL6UYKgZ+RkdF8mQSIcFU7xooCwzu16Lmun0MB1dR7P8Y4RmuEYP09GxLxV1rRkaGLTU9z8IkIAAoiG/ehB8QEEDWJj1/TXgmBYS3XEYsWzxLPv6lQZ7lMQsAjupxZ88nlt25+8hy70HlQfv2u506AIA/D502LHrvVW9tkc6enZ1n37h+qW9ZmYn689Cp0pxcrY3AcSwsNICb0DpGMGHcYM8Xh/eVznt/Vd4Xa3+sU6bEv89fMCXfyTDFRKrcj86mbUDigPkoBCQoqv7MXGm+s1httDMBUVBQYL90JdnYPNqfNR3Gk3YtIBOThExcIfqb1b30CXce5JvfnPN+HlNW2vHjRkkiGvtVnmRoK/C5gIeHyXkA8iq/YG9fW2y0f7WuelSpVCrFfVXMBuqs7EJrZmb1XEMAAEajkf5y3eaic+ebVQv202qL7WvXfev02eBwOJi/WsW4gtSVGKmk5Oo1IMrJy8uzX7l629isqZrVyOqABqAt4CkhCU9J7cbv9v0805tzFueaTK53z2EhgSzR8xhkZOa4jF8IDg4k1T5ejDEUDmq+ga8aU+JODYjaxykQ4GphEd64kSORoSvB5MSF12w207fvPLR0aN2IUdvQKNSX17NHV4/vNm+pswqciWdOQPiqFMTpYz8GhYU+SQ+Qk1NgXfHF99oN320vcVV8prDYkeaBoijoO2hq5t0b+0Pv3U83j5nwTtbxk9XrPvB4XOx/YweJF81/RbH6s7k+bVrFCMZPnZ9T26C53Nxc++59x/TNIscLMDcmu5pisVhdRtN+/c2W4n6924vVKo/6zWTphOw8g23228ty799/4PIiJRIJPnJ4X/fqP7gLRsBvu0/qkpKq67x9fHyIAH9mfbkmm7newPbtv+m3b/+tRlX+HKtkZsGUmVXgtAZERdZ+/X1x755txL4KQYO/r1k5BuusOR/kpaSkuBwcR/wCy+ofI+DaNdfxCwmt4/k4zhxDUSswApJv3a20IwuPCGPNg1ZbinR6+81bzpP1sSUydOXCe+LkGcPL4/t5Mu14MNoKQ4f0E2/58RenLsj1xTMnIDasXexTLhx0JaX2Zcu/Kfjy65+LTW64A5ZToC22j58yX7P/4F8GV4Zqs9lCf/vdjpLde48bdu/4Sj1qZD9pdFRj3qkzl8uKdSV2m81Oa7XF9r/PXzddvupeIrGvN2wu7t+niyi+mVpQf5GVDqwudhAAAFevXrX8vvt4yWtTh8gbQjiVk6c12d6e93nugUOHGaOmBw8eKIyLCRGwZQGtCZeuPjS+t/AjrbPxjIxswmVTMWRm5TlV0dUFPz8f0hEI5vo6NbmFrLl8EhMTzbv2nCqZPnmgV0OOX06+0fb2/E9zDx85xjh+7uj0KQqnmVRnMc3Ya0DUBorG4UKFmBI+n4+xCrM6kJmldRk7wZbI0JULb+LVG+bcfJ1N5c20IKAhvlkYPzQ0lOMsiLG+eKa8mFq1iOYN6NtZDABw63aKKabV0Eefrf6uqCbCoZx9B065FA4VycvX2nsOmJR5OfGmsVFYEJdDkhDRJJQ3e+Z47zUr5vteOvtryL7f16uFQgGrbUGj0diXfPhFfp7WXO9vhsVqdykgaJqGDz9aUXj01A19TYK+3AeDRxkllmmvLc7+eev2aikuKsLn87FJ40fICKz+hMOD1CLLrDlLc11FErdNiGfOVooRcPPW3XotUg8A0CahBY/LYSiYDphbuXwoioIlH36qPX46ucHGLyWt2DL11fc1W7ex10KPCG/MlXsyxy9kaApsaWnVC+AAOIL0ggL8GmQ3m5+vs6akPMlM7OvrS6jZorXrQHa21uYsCaU7iQxdufCmp6fbUtPzWJ8LXx8pZ9DAPvUaN1WVZ0pAfLhopgLDMEhLz7Z26T0hIz2jevbLhkCvN1LDRs/KKtXrqdffWpY/fMwsjX+jbg82bNxeSNM09O/TSbx+zSKVO+fau29/2eJl6/PzCy02Vv/2GmC12miLxfUzlZeXZ39j9sLcv/6+b6hNplRXUDQJx07f1g8eMTVz1252r4oe3bsK2rYMr6csuTjcf1RonjTtHc25c67LtEaEM6sYaBqHiy4imetCXGw0q+fU5cQkt9rNzc21vzF7Ye6ZC/fLal5YyTV2moCjp27qB4+Ymrl3359u5ctqk8Aev5CTq2WsAeHrw6x6qy0ZmoJKqT2CgwM5KpYEjbUHg5TUdKcLC3cyB2e4cOE1Go303fuPLOzxL1bo27urmM9nz9dVW55qAcHhkFiXjq0FSxa8Jj9/amtgrx7tRQAAr7yxJDu/oHLEo1Ihb9DAkfQMje2HH3cXx0SFcwEASkr01PSZS/JefvV9jd1uhzEj+8n8fNmDV2iahg3fbNS9MefjnJv38xlLW7oNRkKp3kixqUhu375tHTfh1ewdu87qysw4VScBhXHg7kOted7idblDR0zU3LiR5Fb+mri4GL4jaW3dHj2bnaD3Hr5S8sKwl7NOnz7ncpLl8/mYny/zSi5fW2K796B6tbS64EjSxhxpbLHSVKKbAgIA4ObNm9aXxr+m+W3vhXoZvzspBaa5C9fmDB05SZOcXN012BVNI9jjFzIyXccv+Pn5EQHq+ks/URFNToG1onNE24R4PnMlvzqAkU6LPAEABAYGkH5MjhEYAbdu33O5az3114Uyd+aG5jGh/KioqAbbIT2VNoiw0ADOO29O9nxxRB/p0ePnDV9v/LXo01WbCrMfnWqcnp5t+fNQ5cygc96YKMsr0Nq3/LyHUb1RE9q1ieMnXrtlrqi++n3PUX1AgA9Z0eaw6fvfS4ID1ZwFc6cr2rWJF+z84xDrFp2iKNi6bbv+0uVE8xuvT5X17tle1ChEycNoG7jrhggYAQajnbp9N8N84NAp/dfffO+Wl1V6erpt/KRXcoYOHVQ64+WXvGKbhfJFHgTulj4YI6HMZKeSb6WZ9v15XL/5h60lmZk1S4Pw6Weri27fvmeZPGmMtHV8E4GXzIMEd68bI8BkpqlLVx8Yf976R8mWH7eyFotXqVQESXKx1MwSlxNgemZ+vefg8fLyIvg8Ps7UrrZQb69pkfm0tDTb+IkzcoYOeUE/fepLnrHRIXyhwP3xMxjt1M3baabde4+U/vDjr6VZWc49t1zB4/EwkVjEeF0YhsH16649syIjGnPzCkrtFGWvVw0AhmGOwNAKBPgHcNIyiy31HSEN4MiC7KzIE4CjymJmTpGNpiinDWM4jl285NpGc+HiFdPdlBwzj6VWOI4TWO9e3YRXrlxpkIJBGADcbogT15b570z1XPDudIUmO882cep8zelzT4qdJ13aFXzhcpJxyoyFueV/W/7Bm95NGgVzh45+Q8N03qYRYdxbd1wHJFVl5LA+oj49OwgnTV/wuC0Oh8R8fZREVdUWn8/DNA9PNHp11rKcrdv310hIYRgGoaGhnO7dOgu6dW0vDAlWc2QSISERCwgulwSapqHMaKFNJjNlMlnp4pIye5Ymx3bz1j3zseOny27evGUpKSmp1RJJKpXiLVu24A1+oa+4adPGXIWXhJRIBLiAz8M5HAKzWm10qd5IFevK7Plane3ylWumw0dOGq5du2GpawF5Ho+HNWvWjNu+XSt+61bxgtAQNVco4OF8Pgfj8/m40IOL2e0UGMrMVJnRROXkFtmSku+a9x84Zjh37m8jU1nRiojFYpwtLQFN0/SjR4/qdbISCASYO4kXU1NTrbVNZV0+fkMG9RNHRjTiKb2lhFjMdzp+eflFtstXrpsOHj5hSEpKrvX4cblczN/fn/W6dDodxRQDIRKJGkR7UVJSQlW0RQUFBZEEUfd0Oa7QaDQ2Z+7Avr6+hEAgYLzGvLw8e8WkjhXh8XiYWq12awHfEM9vOU+NgMBxHL7/9iOfcaMHyk6fvWIYOPzVLJ2u8kP8xWfzFGKxEC+ftNu3jeOfOrwlqF3XMakXLzvf6pUf9/Kk4bIJL7+X425/FN5eRE7qqcbtuo5NvXCJvR7uX0e2BEyesTDn/gPnSdfcRSwW456enrhIJMJJkgSKosBkMtFms5k2mUx0cXExqyqpNpAkCQqFgvDw8MD5fD5GkiRYrVYwGAxUcXEx9U9Ubn03+xihUIgJhUKcx+NhAoEA4/F4GEVRYDQaaYPBQGm1WntD575/liFJEpRKJSEQCJyOH1s1PwTCGU+NimnzNx/6jBs9UPbwUYal9wtTM52luFj55ZaiPTu+9C///OHiNxQYBtiN5HuMO4OxLw6QDOzXRczhkLlWq82tWU7h7UngOA4jhvYWuRIQ3bu2EVy8nGQuLTVQn3+xubCuwgEAoLS0lKrr6rw22Gw2+CetQv2WvnITg8FAGwyG/6Tt5wGbzQb/qKvQPUTUG0+FkXrc6IHi/40ZJAMA2PnH4RJX+Y/S0rNs7y3+Il/uJSV4PC7WLqG5h8Vio5jcXKVSMT5mVH+pl6eMGDfmBbdTWs+ZNdETACC2WbjLFAcXLl03/7z5U9/msRG8PfuqJ4hDIBCIZ5mnQkAMH9Lr8cSdl1fIqEfYd+CUQVuoswsFAozL5WB8PheXe0ld6phnvz7eUypx+GwveHeaN4fDbPQBABg2uJdo7KgBMgCAvALX/dHrjdSGTb8WHd2/KTAsNKDBo5QRCATi3+SpEBDe8id55WUsBUTKKSzWUQ9SHEFGY0c53xnIvaTEazNGe5V/Dgn2506ZOLxSQi6ZTIKHBvtzvOUyIi42krdy+TuKrT98puZyOZjJZKG+XPczo3fQoSPnysQiIf7eO9O8mI5DIBCIZ42nQkCYrZbHOvcW8dFu5zmf9/7qPIqiYNF70xXt2sRV+91HS96Ue3nKKgmcD95/XeEtf/I3g6GM7tO7o8fe39arz534JejNmePlxboS+2+7jpS06zom7fxF1wVPABzFiAiCgLjmkf9eHUAEAoH4F3gqBERy8oPHHkhdO7UWMqmMKrLzj0P6YaNnZZSWltmP7t8U2LN7u8e53GNjwrkT/zfEs+pv5F4y8vPlbyvKP1utNnrdhq26tl1Gpwu84u5hHlF3lIEdHwwfM0tzlcGXu5wJ44ZICALHOCS76gqBQCCeJZ4KAbFizQ9FupJSOwAAn8/F331rSrWJ3RW79h4zNInp9+jVNz/IiWgS8tgOsG7VQh9X9oZxo1+Qde2cUOd0D0qFnFjw7jRvAICUh+w5dRAIBOJZ4qkQEGnpWbaxE9/JMpsdofmzZ473fmnUALc9jiwWK715yx8lX67/WQcAMGn8UEm7tnEuK0PhOA5rVy1QuWOwdoVEIsJ37/hKrfZTcgAAtv92qN6iuBEIBOJpgACA1/7rTgAA3H+QZr1y9aZxYP+uIgGfjw8e2F3C5/PoE6cuGmsSoCUUCrBd2770F4uFjGoqhbcnqdPpbX9fcB3u7oqopo24+39b598iPkoAALBn3/GS+Yu/0Nb0PAgEAvE081TsIMo5cPhMWdO4gY+2/3ZQZ7dT9Lw5LyuuX/g9uKJtgY05syZ6+voqODk5BaxBa++8NclbJHIeDs/jcTGBwJElkSRJUCrkRL/eHT2+/2aZ6srZHSExzcL5ZrOFXrxsbd6wMW8ypvlAIBCIZ5GnJtVGVdR+SnL8S4PFHdu38IhoEsIrKi6xnzx1sSzx2i3TvoN/GYqLq+cf4vG4WNrdI2EqpTc5cdqCrM0bPlSztTN3wcrcirWry0loFcMfNrinKDqqCS/Q34cjFosIAACDocz+MDXTevLURcOPW/eW5uY5r0GAQCAQzzr/moCQe0mJMaMGitu1jhU0bx7JF3oIcKlUhJeUGKhbtx+YbyTdM/2x95j+3Hn2vPxcLgdzVvpz4v+GSL77+kO/23cemkaOm61JurQrlO1cidduGVu0G5FW2+tCIBCI55UGz8UUGOBHfrDoNe8RQ/pIBAJeNXWORCwi/NUqTq8e7UVz3pzofe3GHePCJWsK9h045TJ1hau60C/06yoCANj++8ESH5W3W66ycbGRgrDQAE7Kw4xa51FSKb2Jvr07esRGN+GHh4dy7XY7lJUZqXv3Uy0HDp8xnL943VTbjJ0IBALxX9GgO4hJ44dKVn7yjqo81UVN2Lr9z+LJMxbmusrL5IxCzbnGnjIp0bLdyEd+fgpyz861AW71c/oCzeYtf5TUtI8JrWL4789/Rd67R3sRQeAuPaLS0jWWT1d9p/32ux0l7iYLRCAQiP+aBjNSL1nwmnzT+g/8aiMcAABGj+wnO3fi50B3g+YkEhHuKZMSdjtFX71x25ydXeB2bujgQHWN8igJBHzsy5XvKc4e/ym4X++OYibhAAAQFOjHXbtqge/Vv38LahoRxq1JWwgEAvFf0SAqptdnjJUunDddUfXvefla289b9+mOHD9nyMjKtYmEHnh0VGPuwL6dRX17dxJC+yQsAAAgAElEQVRXjUtoHhMhOLJ/k3+nnuMy9Hojo44mMMBRnMVqtQJN03DzzgNLSaneLvnHuMyEQMBzOx7CV6UgDu7ZEBDDkOXVFVFNG/Ev/LUtePT4OVlMKjTE84tIADifC5jVDrRO71b5wFohEQLOJQEzWYDWGxuunXLwf5aaDa1JJXEAG9LW/mvUu4CIjmrM/XTZWz4YVnnO3fTD70VvvrM8v7TUUGl4z1+8btq4eWdJVNNG3E3rP/BJaBVTyaU1LjZS8P03H/sMHzOL0ZW03C7B5/Ow4EA/8lFalu3HX/bqXp02mjWJnlZb7JYnkr9aRf51ZEtgSLC/012AwWCkrly9ZSwu1tmFIg88tlk4v2IiQgAAkcgD3/7TKvXA4a9kHDtx3uhOuw1BoArIuWPAq2MMePjKgeMlAQLDAP6ZUOyFpWC/mwbmSZ9AboEO7HIJEIkbIbjiOWx2oHu8CemPchwV7GPCgLvnY/DHKhRL3noMdHM3QEHV9j+eCvIxPUBW/vngBSidtgLyqh7XNAi4vy4GP1fXYaOA1urAfiYJyjbth5KMPLB9NQsUvVuDW4GWm/ZB0fJfoJoXWzl/fQkBQSqoNN6z10Lub6dADwAg5AN2ei0EysVP3qU76WDuPQcyyz8PaAfCaS+ALCESBArZk+PsFMCDTDCfToKyz7ZC4b0MsAIAnP4KAny8wK1d7YwVkH30ChgxDGBcbxCP7w3S+CYgkIng8cLIZgf6ViqYT1wFw6dboVBT4KgZERUM3G2L2O/t6RuOe5uZD4935UoZEDOHg6xnSxA29geep9jRntkKtL4MqIx8sAyeD1llZqD//AT8lZ5PrnvvOSh9bbVjrPlcwPYuB3UTf+ABAOw4Cbo56xzPC4cEbMoAkAztBOLoEOArZEASOICdcrSRrQXbos2Qv/0E6Cf3B8ncseBd3sblO2AcvRSynV3X60NBOnM4yNnubZeZkJ5VAP+vq1TVu4D4/OO3FXx+5RX58hUb8+ctXMUYSHbz1gNLl94TMvbuXKvu0a2tqOJ3wwb3lMyYOsqw/pttOle/z8jMsVmtNprDIbEpk4ZL31v0hXb+otUFvXu0FzYKC+QxtX3xSjKr55RIJMD3/77e35lwyMzKtX78+bcFGzfvLKloQCdJEkYM7S1e/sFsZWCAz+MXXiDg4b/+uMK/WYvBD7Nz8/91N9nRPUC86R3wFfAcKkabHeizyWDIzAMbjjtWnwopkF3iQPjaUJAu3gyFOA4QqKo+aa18DZRDFoAGwwDWzwafqpOplwSq7eBCfICcNRzkfN4TFeeUAeD1w2EoOZcElcbCgw9YdCg83q1RFMAvx6CYzwUsKhh40aEgAADo3gJEs0eCvN0rkPZQA9ZrD8AI4Fix96kiLHaegsfPUcVJzxl+3sCpet0rXgXV/r/BYLIA/dHL4B3XCCqlbdEZnhTt+WoWKF8dAo8XKVfugvHqAzAJeIC90A7E4YHACw8E3rheIBvxPmTuPQeG5Idgzil09CtYBdyWEU/OX1gC9uNX4XHd82I9UDgOsGsZqAe2c1wnTQOcvgGG26lglsuA6N8GJDFhwI8JA/6EPiDrMRvSL98Fs1BQ+d7aKaC3HgMdnwtYVBDwy78rv7dtZ0DarTSwdIoF/q5lEFAuFGx2oE/fAENqDlg5BGAqLyBC/YA7fRBI530D2hkrIef4aggUeziOf3UIeGkKwPrxz1D000Lw6dECRAAAx66Afv63oAVwCKCjqyCgWYX+JT0E0510MJeZgPKVA8dPDuTMYeC5/QTo5RIgGqmfPHu5heDS6cRbCmSlY4vAdv4mlFU9zmKD//f2wnoVEDHNmnB7dW9X6WU88dcF/fz3Vz8WDt27thG89+5UefOYCIHdTtEXLiUZlyxbW3DpSrLZZDLTL770lubG5V0h5Sksyvl46Szl3v0nDJlZuU5faKPRRJ+/eL2sY/sWwrdmTvC+eu2Oeecfh/QXryQZmQRElibPevrsFcaVPI7jsOPn1b7O1Er7DpwqHTd5brazuAybzQZbt+8v3X/wlOHAH1/7V0z/IfeSEd+uX+ozYOiMLKa2G4J3R4NcUGFy/nAL5C/5HgqdHauUVZ/gKzKoA0h6tYLi8ADgtIsGtwIaV70OyorCAcCholjxCijbzoB0pt/aKaDHfQiPS8ee/goCOjQDIQCA2AOISf1AOnst5MN2KAZwrJKrCogXF0N2XVQhQSrgzB0LnrvPguGVCpN/VXq1Ao+KwuGv62DoPBMyyj+3DIeiC19DCI4D8DiArX8LfA6ch5QZK5/spF4ZAtKKAiItDywj3q+8Mn5lCEjLhQMAwI+HoXj8R0/u0YiuULp9MfgDAEhFQKybDarW06rfZ6sNoOK9PbcOAttGOcZUIgRiYj+QvLsBCra8B+py4QAAMPFj0Px0BKqlmvESO8b48l0wj/kANL9/AP4c0rG7/GAyqDo3B2GvVg7hcOkOlA2aD1kWq2NSXvU6KCoKhx8OQfGECtdUtY26cCMFTIPfAxTs6oR6NVJP/t8waUXVEk3T8Mac5XnlqTI+/uBN+ZF9G4O6dkoQecqkhLfck+zfp5P4zLGfgocN7iUCcNR5WP75t9VUElKJmPhm7VIVU/vrNmwtAnAEzG3/aYX/n7s2qHv3aC9i+s1nq77TstU6/mrle8o+PTtUU1kcPHKmdMiLM7PKhYNSISdmTB0lXbrwNfnoEf1EEomjMHtJiZ7qPejlzHsPUitlh+3fp5O4U/sW/3qa8MLSyqvm98eDMncXNLryLQTtXQ7qDW+B8pUhIPXzBiKvuHoJy4qZTzAM4IvXQbV0MiirfueMzs1B8EJ7kAAApGjAYjI/0Y+3aQoeL/V0TzVUTkGV/pWZG07fXvHa3hoJ3j/MA1+SAMzVNY/oWvladp2uPIlevgtmjfbJSlftDZz4cGDc7TpjaMfK7fx2qnI7f5wCfUWB2CoCPGRuTKwFxZWfkzIT0O2jgR9UYUelLQGbM+EAAFBY+mQs9p0Dw/SVTwQzjgOUC4e76WDu9w5kGUxPVuwVBR4AwBc7nasBK7ZRW/wVQL4+FKQV/0mET1eWif+Ker0JXTsnCCt+vnApqSzpn3rRgwd2F747e7Kiqm0CwBH4tunrpb5eMikOALDx+99KyspM1Qa+b68O4knjh0qqneAftu08oD945EwpAACGYdC3Vwex3Evmcpd08MiZ0jXrfmIsCPTa9DHSGVNHVVslaguL7f+bPC+nXLhMmzJS+vDWobB1qxf6Lpw3Q/HLD5/5p909EjZ6ZH8xgKP63Pgp87Or5pWaMmmErOq5G5ppn0Pu8UTQ2+yOFxLHAZSeQMY3AcGAtiCe+gJ4rZ0Fvim/QNjrQ0Fa9fdlJqD+PP9kUogIAp5MBITBCNSJCuoPZ3w2A5Tlj8CbX0Lu2l2Vdy4fTQWlgAeMTgNvjgDZ0kkg37kU/AZ1gMfPw71MMK/9AxjHsy7sOPlENSXyALx8hbv3LDh1kVZ5Vt6h5zsRtqWGyhOcr7zmu/qKdg0AgLyiyu3YKACDqXI7aiftYBjA7JGOe/v7B+A3oN2Te3s3HczrdkOxosqOsrDE/RrY3+2HklU7KtujtDqwd38TMgp0T87D4wImElRuJ6+w4WptRwYBf80b4Fvxn8qTeef8/4V6ExA4jkN4k+BKq5+jx8899tSZ8fKLns6EQzlSiZgYN/YFCQCAyWSmE6/dcqr2Wf3ZXBVTec8RY2dlHz91nnGSAgDY++fJ0qGj3tAwJQLs1iVBsGL5Oz7Ovtu4eWdRfkGhHQBg9Mj+4vVfvP9/7Z13fMz3H8dft1cul70jkdi7CA0i9qZqtqhRiiotrV0dqrS1SlFKEa1Ve8+YETNEQhBk73HJ5fb+/v44l9wll0hIjJ/P8/HI4yG573bfz+vzeU9PgcC6rpODyJ7x7+Zfvfr0DOEDJof8+Us3rK6tXdsWla4zVV08SYeu6wyk2/XC46CJSOo3F6kTliJz+W7k308s8QFwOaAv/wIeQl7Z78mk5ciRKqxf2t/3Qmy2ndtiXG/YBz0zl5y+CdnRq1D8sAXibItZtK8bWPNGlm+2AYCkbOjmfwLXwaGwp9GAlBxou3+NlCZjkJwlrrmBZMV/KLjzGFbfy/DbkIffhs2ItNIzcHensoOOY6mZfJa46k7R/CLrfTycrc/DZoEm4FqfJ8PGeSgKSMmB/ttP4PphR9OzTcqCttvXSGk6Dsk5BTCk5Vrv5+YAJrMKo0j0Y1itonMKoSvtCNZoQZUWHn/PmkvqvRwDhd8wPLX8Scos34fxLlFtAuHu6sxgs1lWChD/OKm4R0JA7ef3bG5YP6DYcZSZlWvzRRHaCRg7ti71pNNtX7pcrjJ26zMh/cuZv2SnpWeX+U9OTsnQTpz6Y+aAIV9kVJSEF+Dvw9qzfaV36Xsys2vvCSlgEsZlS2a6lSd+DAadtuK3OcWmsd17T1rNNv1qebFepuz4i9CvHQR+7mBqtKCi4qE5fs0UpTJrPfInLLW28zLooBmpss669DzoF2xGnvn3bDF0v1UQDcRlg7bwUxSHPoc2h6DoBOpmHkAdZ5H1yz9jKJy9XcofEA5FQLHk35Jz+7mDPbYPROYVUU1hNAKTliPbfB6DEdSs9SXXUZpTN62Fo2srWK2wG/uD7epYYq7Jyocu+gmq3FckPMr6PD2DrM/TIwh8y9cl6hFUknJMM/svQf7rjpJ7qu0J9vAusNc9c9hGxUOTmlMyeIrswPhsQNlVJmASpqrei5nTt6zNVtOHwtHWK/Yy5zCj0YFKzYHe8oeE0pqoNlWm2RivDcaS97WgsOi5M7siqaxS/y1tg5rxly2Z6fLN3KVlfBWAyfex5s/tkrXrd0jeb9Oc27plYw5oNNqliJvK2HuPn/sCerq7Mk4e+cunPPOUXm+g4h4kaAGgdcvGnNIO9dI0qFebE+Dvw0pMTteVLi/OZDJotf19mI+fJL+yGUvLuuAcWgzf+FSo45KhKZDCwGCA5iYCo31T68Fly3EUKNSg+DY8JWsPQDKsM4QdmkIwfxPyKoq3nzcSTr5upsHw+gMon2ZYD4TtGoMf4GWKLLHjg75sClxG/FTWKWnmh60QNw8EZ8AzE9PIbnBQqkFNXIacqjyLqhIVD83aAyiYPhTOW09CcvcJNCFNYdOPtO8S5KdvQmYOue3dFsLTy+FzOQZKVwcwPuoKEePZe6PTg/pyDXJ0LxA5s/YAioZ2gb05mmpifzi5OIBx9wk0Pq5gjuxeMoDLlDB+tbbiZ7RgM8RNA8E1+wE+6wdHUKAmLkcuRQETliLryBL4mAMN1n4Fz8EdIXyUCg2DDprIDvT6vuA8TIVm1KLy/w8rYuafyAtuDH5tT9N3YkgoRLFbwIm8D6VOD8pBCIavK1heLmDWG4mk0vsHeIL91zcmv5glK/eWncQ0qAXO1rko49/8KQxicwj3u0q1CURefqHRYDBSllnFDerVLl4RnDwTIW/TummF5pTjJy8Vm19q+/tUOOh+/eUYl+zsfMOyVVvKnbVSFIVrN+6qq9LzITDAl3Xi0AafenX8y3UWUhQFs+/B0bFymd5Ojg70xOR0FBWVFUGD4dVGuh64DPmQTrAP8AS7kX/ZwU2lgfFeItRbT6LoryMmuztFAWaTkvKZPZuigEnLkLNxFtzDTpns8EoNKEvTk1oDo7M9GJ/2hYNUAYNEDmPv2UgvPYPt/B54hxabIm0A02DavA4K9MaS8wKA7tnsnaKAUT8j+/JasAKeDSLDO8M+txD6BX9DbLm9WGr9klehvQjkShjN5zfPKudtRH7H5uB/u9FkT1frrO/ZLJRGIzBgPjK/GgyHcX0gqucLbo8g2Jmds4DJhn8lFopF/0AcFY8yLW5VauvrL7Rh85epYAydirR5o+A4tDNEgV5gDwmFaEhoyTbZBdCfuwP5wq0QP0k3rQAMButnq9FZPdusiDVg+XuYRH14F4iyxDD8sBXis1FQNh6LpHmj4BTaHPw63uB0bQW7rs/CVQ1GUOl50J+5VTYyTqO3flYype1JRZYYhmbjkDzrIzj2eR92zeuYwm4tw3LzJNDvuWD63snVMFo+JzYbtMGdUMZfuescZHKV9bZ8Lmj925cNjlh7AJJ3XSCqtRbT43snatcN9CseWKNjHqpaBg9JAQCRSEiPuXHA36+Wl80ks6PHL0gHDJ2aCZhKfafEnwt8XgkLiqKwdOXm/Hnfr8qvSlMhW7BYTNonIwYIK1s7ysM/9ElObr7B18eDmRIfXqci/4pGo6Vca3V4IpMpjM2a1mPH3DhoVWXWxafdE3HB81dYNYGTEHRHezDYDMAIQKqAMbsAhqo8Th4HNJXm3YoZf5F7FnBB83ED00kIhkINY4EUxuflYbwIDkLQPR3BcBSBIZXDmFcEQ04NOnnpdMDZHgyRAPR8KQzlma9eFvN3VaYw3dNLvvKESlCtUUznL9ywsoW+17wh78MB3QQAUFQkM/bo/1na/bgnZWbzh46ck44YN6t4Kfr9vClOzxMHwBSpNOebCS4nD//l3axpvSrXOOLxuLS+vTvy/1rzo1tW0qXAqtSO6tKpLR8wJeiFn79WoVP8wOHwInMGecf2ra2SqpRKtbFQInttPSUKZDAmZED3MBW6+FTossRVf/HeNXEAXuyeFWpQ8anQXYuDOjYB2poQBwCQyGB8mArd1XtQ30+CtibFATCtlPIkMDzNgK6mxAEo+a7mSog4vCqqdQXRrGk9dvS1/QGWDuSCQomhS+9PU2Ji47WAyanbvWs7flDLxlydTk+dOXdVGR3zsHhp/eGAboK9O1b6MhhVizIzGAw4f/GGfPaCFXl3Yx6VWarb29vRWzZvxGnZoiGnWdN6nEYN63CbNq7LLZ31XVnOX7ou79p7fDoA+Pp4MK+c2+FnmS1t5tHjJE2HLiNTzSuEW1f2+LV+1qoUAC5G3FJ07jk2rfR+BAKB8Lqp9nLfxw9u8O7TM8TKnpebJ9Z/Mn5e5pnwyDLp7JZMGDfEfs2K+Z4vMmhHRN5WLF66UXz67BUljUZDcNsW3C6hbfjB77/Ha9wwkOPr48EuL/LpRaAoCn0/nJx68swVJWBKkvv5h2nOfXqFCl1dHJmZWbm6A4fDpQuX/FkglcqNADD5s49E61d/52l5nJ+WrM/74ee1pJ91JXEQgi5XwPiuRplw2KCJ+KBzOaAVSmGUvYJCfIR3l2oXCF8fD2bsrYO1HUT2VksAiqKw7+CZonUbdkouXYkqjiVnsZi0nt3a87/+aoxj545tK8x6toVUJjfMnLc8Z9OWvVJPd1fGrBnjnIYM6mnv61N2Nl/dZGXl6Tr2GJ36NCH1uRFIH/TvLNi9bYWPpfjp9QaqQYu+iS/TrOj/nR5B4E/oB1FQA/B83cA2R/1odKAKpdAfuw75Z0uR4+MK5pV1qGW5b4NRSFJrTaagbz+B02f9S4oDnrgG+ZTfyxYH/H0qXAd1LHFunrgOmWXpCzMfd4Pwl4klYbv3E6HpNxcZyz6Hy7DO1mGfpY8RsRa+tdxMjvW+c5B2P6ni0FZXBzDmjoBj32AI6/iAzaCXhHYq1TBGP4Fqz0XINhxGkblUxfbv4NGhaUnpk+W7IF57EEU3/0Ity8J5435B1oVo2Mw5it0K/+dlFJ+8DvnnK5F7chm8G/nZjubSGUAVSKGPT4N2VzikJ66XrXtEeDOp9uSTtPRs/cQvfszaGbbMm8lkFH+RaTQahg7qKRo6qKcoN0+sT0nN0gn4PJpfLS926QSzypKRmavrO2hyWtyDBO3ihV85fzXlE+cXPdaL4Onpyrp85p9a4z9fkGVeSZRGIODRvp/3ufM3X41zLu1XOXQ0XErEoXw2zoTbZ/1Lkuay8qG7/gCqPAn0zg5guDuC+WEIhIu2QcxkgFa6UCDD4pvgIgLD8nM3x7Lf/Ya1wJryIZzYzJIB+LP+cNpyAkW3HllHGIkEoFser1BmsvM724NRurjf5A/gdOcJ1JuOmiJuvJxLCgBynhPH39gf7HOrUMuclS2Rw3D6FuR5hdC3qAtuh6YQtH/281EX2HedgTSVBpSXM5iW12euneTrBraHU8m9C2wkQZrxcwfLXlCSdHchGnLLjGcAeJxmEjdPJ+uihtfioEzIhNZFBEanFrAL9AI7qAH4o7rD4bedyLdV4Zfw5lEj2Yl7D5yWCwT8zL//XOhty5fg5urMdHN1fqlz5+UX6EO6jkpRq7XUpdNhtSwL4b1KPD1dWccPbqh15eodxf5DZ2X34h5r1Got5e3lxuzcsQ1/2JBeImcnhzIPQVIkNUyf9Wu5SVbvOoNDYWcpDik50DYdg+TSJhU6HeCxQXN3evnv8u/T4GYpDoBJZFZ/Cfd2UyouIvg8Vk2Fx40HJud0VfbbMBPuliU7hnyP9HO3S2b8+xbBc3BH04oluDH40wbBYemu8hMWX4afwiC+eNf2aqM0206VhEiP6w37LXNLyoqP7wsHIhBvBzWWvh7270GZRCJN27zhJy8nx7ID5Mug1eqoYSO/yZDJFdTNiP/8yuvP8Kqg0WgIad9KENK+leD5WwM6nZ4aN3FBZkam7WxxAjAk1Doufc95SG3Z242mOkM2Y1qmDYKDOW+ieR3b5g8zPduAb05oi0+Fxs8DbC7bJBbBjcH/uCvsdp2ruM5UaWRKGIV80wydzwV99/fwDpqE5Mru7yQEvV3jksTFAikMluIAAKduQGEWCADo1RaCmhKIIZ1g18qimGB8GnTHrtouM2KJuFTuxqtoYESoHmpMIADg0NFziuiYR0nb/l7iGdqhdaUGz8rw1997CiKv31FfOBVmsz+DTqenTpy6LDsVHqmIi3usodFoqFPHj92rewdBv96dhDwe57VVapTJFcYJn3+feejoOdJRrgJK95EoPchUhl8mlc2OtQWdbioiCJiSxKauQnaf92E3Y1hJU5lfJ8H9YISpB0Rlz7/xKAq6t4Zds0CTODX0B2fDzMpdEwB4OIFpGVchkZd9BpJSXelcRDX3Tn/xoXWTnSNXIC1PIIIagOvtAqarAxhDO5UImEoD4/xN5ZcnIbxZ1KhAAEBKaoa+U48xaf37dBLM/nq8U7v3WwheJpooX1yo/27RGvHUSSNE7YPfKyM6V67eUYyb9G12acfx5cjb6i3bDkj9annnbd7wk0fXTu9X2SH+spy/dF3++ZeLcl5lWY23lSyxdbE0c5mOqhAwHE+Vzwb0hePgPGmA7SKAUz6AyLIya/htqG4+gmZkd4jMvopa7mDNGQHH8vpm2EKjBTX4O2Tc2gh/c4e3Ud3hUNmaUZmlCh+WrqQKmHwelr/nFtZc5u+HC5B2La6kmGNFYvkwBZoJfeHYwM+04qAoYPZ6ZG89CdmLiD3h9fDKZtJHT1xUhHT7JK1uk94JM+cuyz589Lw0N09c5S/zjl3HivR6PTVn5niX0p8dOXZeGtpjTFpFUUUpqRn6XgMmpe/ec6Lc7nTViVKpNh4+el7aoeuo5K69x6cTcagcBy5bm3OGdoK9l4vtEsxmU1BpciWmDOKcAhjKS2wT8kBfMKYkGql7EOyKTqBu2l4EWjbFAYBvhsOlvGsoj6cZ0H2yGJkGi3k+k1G5AnMSGYy340tMSkI+GB2bW5vKurS0btJ08kbVzGBVQSKD0fw8cwpgqKintlwFqv88pJud989KiTs72ZM+C28TNb6CKE1icrpuxR9hkhV/hEkAoFGDQHan0Da8DsEteUGtmvADA3zZFZWt2Lr9YFH/3p0E7m4uVteekJimHT56ZpbxWUeSju1bcefOmugc3LYZn8fl0mPvP1b9vuafwl17jsv0ej3GTvo2u1HDQI6tLnEvilaro1LTsnQJSWma2Hvxmus3Y1Unz0QoK6oaS7DNkUgowk6icGxvOAKmqKP7YQg4GwV5ngR6kZ0piqlZILjDf0RG6TLUleW7MXAyO4Gv3DO1zbT8vH2TkoJxQj7ov02Gq2XXtcpw7CoUS3cib96oEiGqLDPWIufkUtQyRxsdXgLfHWdRJJHDENQAPMu6TlfvQ/nnIVRp4jNtEBwHd4TVajoxE7pF/5RdKc0bBecJ/a2f84MkaJZst+3zeJoB3eglyDy0GD4MOmieLmCdXQnf0GlITcl5t2scvS28coEozYNHCdoHjxK0f/61qwgA3N1cGEMH9bAbPqS3fYd2La1MSDm5+fqY2HjtzOmfljEVLPhxda5araEAYPTIAcItG362iqAKatWEvzNsKb9Z03p58777XazRaKmZ85fnnjm6qVbpY1WGx0+TNVev3VU+fJSgjX+apH3wMFGbkJimM75ML0uCFeN+Rc6hK5BP6AeH9xuB5yIC0zLHQCKH4Uk6tDcfQu0iAiO7lFnKctYukcNg+XmBFHpnezAGtIcwNQc6qQKGPrOQUdoR3q0VeJvnlETgdGgKfl0fsORKGC2PZ27SI5bCYC6HbZ49A8C3f0Pc0A+clvWs+1ebC+SVR0Qs1G0mIfn7cXDu3AICN0cwLduY6g2gHiRDszMcRav3QWI2++RJrO+36FlRvOwC6GBRvr1ZADjNAqy72N1NMJmRssTQKy0aDT3bzmpbLgt0AIVZBdA55pSsrqTPznfsKhSLtiHv84Fw0mhB0QBa2Hx4fjAfGVIFcVa/6VR7olx1EtqhNW/l0jluLVs04gHAhcs3FV16jUu7e32/f/NmDYpn/gWFEoOHf+hTnU5P1avrz4q5cSCgvGxso9GIzj3HJl+OvK0GgAd3jvo3bBBQqVVEQaHEsO3fw5K1G3ZKEpPTianoFcOkm5zXNLppAHwXtdjVAQxXERgcDmgSKQxZBTBUxXFOIFSFN9oeeOlKlKpd55GpR09clAFAYlK6FgBKm5di7sWrdDo9BQATxg4WVVSqg06nY+KE4cUZtZHXoysV1/3vrqMSv/rdEr6euzSPiMPrQW8s8Su8i+IAmITxQQq00Y+hScqGnogDoSxwOhMAABSbSURBVCZ5owUCMJXKHjJieubFiFsKo8FAAQCHa93lLSs7v9ieWdvf+7nRLnUDaxWHxqamZlY42Ov1BmrClO8yR4+fmy2Xq97RYYlAILyLvPECAZicvwOGfJFxIypWDQBisXXvBB6nJK8hP1/y3BC6Qom0eJvyWoqazzti7KyMzWEHbDalJxAIhP9n3gqBAACZTGE0D9TpmTlWs/5GjQKLHWcHj557bpjfmbORxck9zZvWt9k5jqIoTP16cdbeA6drLGyQQCAQ3mTeGoGwJOJKlFVhvLqBfpymTUwNg86ERypPh0fKbO8JPIxP1KzbaIqYEgoF9JAOtstjrFgVlr9py16yciAQCO8sb6VAHLPoXQ2YHM8/zJ9SnDg3dOSMrENHzpUZ3K/fjFX27P9ZmkajNZWAnj3RqXRZcgDYf+isdPaCFaSYGIFAeKd5o8NcK+LG5d212rRuapVFOmHKd5mW/oLmzeqzO4W04dNpNNyOjlObQ1sBoG/vjvxD/631tSxJDgA3bsUqO/Ucm2bOqSAQCIR3lbdWIAZ90F2wf9cqX8u/GQxGasac33LW/LldUtG+E8cPs1+9bJ4Hl8u2WkE9TUjVBnf6OCVf/HxHN4FAIPy/wwAw9XVfxIvwMD5R17xJfXbDBgHFTmY6nUbr3SPErkvo+zyJRGpITE7XG56l0woEPNqAvl3sNq1b6D5l4kfOpVcOefkF+q59Pk1Nz8ghJQAIBAIBb/EKAgCcnUSMG5f/8wsM8LXZD0Kn01OZWXl6Go0GTw8XJovFtBnSKpMrjD37T0y9duOu2tbnBAKB8C7yVgsEAHh5ujLOndxaq0G92jbDVZ9HvrhQ32/QlPQbt2KJOBAIBIIFb2UUkyWZWXmG9p1GprxI+e7Ia9GKtiEfpRBxIBAIhLK89SsIS/r27sifPWOCc0j7loKKSoY/TUjVrlm/s2DN+u0SiiLBSgQCgWCL/yuBMNO4UR12z67t+UGtmvC8vNyZdDoNRVK58V7cY/XFy7dUZ8IjlUQYCAQCoWL+LwWCQCAQCC/PW++DIBAIBELNQASCQCAQCDYhAkEgEAgEmxCBIBAIBIJNiEAQCIQ3CjqdjqmTR4jSn14I/H7e506v+3reZYhAEAiEN4aO7Vtxo6/t81+2ZJb79Zt3lfNnT3Rt1rSezVI6hJqHCASBQHhl0Ol0TJsyyiE+9njtiPB/fQMDfFmAqa5a2KbFHhdOh/nniQv1zdoMTBoyYkbW1Rt3lX//ucijosRXQs1B8iAIBMIrwcvTlbF/1x/e77dpVtzH5dbt+8p2nUemXjwd5htY25cza/6ynO27jxV3hKxfz5919/qBgBlzlmZv2LS7yuV03hZYLCatYYMAlp1AQJcrFMaU1Cx9UZHM+LqviwgEgUB4JaxaOtf1q6mfOJf++6Jf1ufNmvGpy8hxc9IPHD6rKP152KbFHj27dhB4BoQmvJorfTVwuRzap2MG2Y8c1lfUonlDLp/PLbboUBSF+CfJmlOnI+S/r/23MDUt87W0ISAmJgKB8EowGI0269vMnz3Rlcvl0C5fuWVVNNPN1ZmxM2yZx6iP+jscPBJebp/5t5HPPh1qn/70fOC63xd4tgt+j28pDgBAo9HQoF5tzvRpo52f3j8Z+Mfy+a48HveV29mIQBAIhFfCr8v/LpTK5GW6NTIYprbwX0weIWIymaDRaJgy6WPRo5ijAUGtmvB6fTApZcr0Rbmv/IJrABaLSdv9z3LPjWt/9HJ2cmBWdp9pU0Y6376619/Xx6NS+1QXxMREIBBqHG8vN6a3lzujS2hb/i+LZriXt51CoTJm5+Trvb3cWKvW/Zv/48/rCjQabbmVNd1cnRnbt/zqWb9eQJl+MAuXrMvbsu2AdNjgXnbLlsyyec6s7FzdpGk/Zj94mKDbuHahW4d2LQVsNttqpn7qTIRs0rQfX1qg2GwW7ei+dd49urW3e9FjpKZl6zr1GJ2SlJLxSkxOr1SNCATCuwWdTseMqaMdflgwxVVoJ2AolepyHa8yucL47Y9/5DasV5u9Zv2OwofxibrnHf+D/l0E3bu2szngioR2dAAQCvn0Wr4eLFvb1PL1YE0YO0S0d/8p2dhPBjra2sbVxbHK4ySPx6XNmj7OcUC/LkJ3N2emvb2AzqAzaAIB76WsNrV8PVgPoo8GanU6o0qlpgoKpYaIK7cVy1dvLXzyNOW5z6uqEIEgEAg1QvNm9dlbNvzs2aRRXe6a9TvE/+w8LO3QrhXvuzmTXT08XMqMPUI7AX3QB92Ee/afkiYkpVVqhmzZRjg65qHq4zEzM82/5+QWlDFnXYy4pejcc2zaT99Ndf5u3ueuAMBiMmkcLqd44H70OEkzcNjUdPPvMpmiStFEdev4sY7sW+fzol0uzaSlZ+v+3XVEEn33kUaj0ZRZRTmIhHQuj0sbMrC7/e2re/3HTJifefBIeBkn/8tABIJAIFQrTCYT382d7Dznm/EuUXfilK3aD026H/dECwCx9x5rBTwefemSb2yafDqFBAk6hQQJPp/wkWO3vuPTcvPEZQb58lAoVMb4x8mVmkXr9YZyzVYymaLSxykNj8elHd6z1vtlxeHE6QjZ8E9mZMnlqueK06Yte6ULF0x13r7lN+92XUYkx8TGa1/m3JYQgSAQCNXKqmVzXEeP/MBx2jdLsjZt2Sst/Xltf29W3IOnamcnB4aHh4tN00+jhgHcUR/1E65cs01S1fO/36Y5t349fxYA3Iq6r6nq/l6ebswZU0c7AECRTG48cuy8Il8sqZRQzfxqrGPDBgFcANh74HSRTq+nhg/uLbodHad6/DRF27ljG4HBYMTlyChFgJ83m8Vm0T6f9lP2L4umu5pNZSmpWbohI6ZnCvhc+tRJI22avdZs2CH5ds4kp369Ogn7Dpqc/uPideLePUMEq5bNc+/cc2xaVe+5PIhAEAiEauXMuavKiZ8Oc7oZVbbXe/vg97gD+3cV/rPzcJFAwKdNnTyiTF7E/bgn6slfLsyOvBb9Qr3iJ40fJjL7E+YuWJmTX1D43ME9N0+spygKNBoN3l5urJVL53iYPzvYK1Q66OOvMiva30zXLsEC879/WbapIDrmoaZd2xb8BQv/yD977qpy47qF7hqN1jjt68V5yxbPdGnZsiE3PTNHnycuLDap7Tt4ukilUlP16voxynPo/7PzsNTby43l5ubI5PO5NIqi8HfYfsnald96slhMmk6nr5aWmUQgCARCtXLk2AXFydOXZRv++NGjXecRqRRFwclBRF/+6yzX0SMHOJ46Gylbs36HZOO6n8oMflF34lTBnUak6PU1E6TToll9bkT4v75+tbyK6zvpDQbExMZrew+cnNqofgAbANq3a8kfPLC7PQCIHOwq7VgW2vGLt+3csQ0vOuahJiEpTXv7dpwaAKJjHqoZdNMmwe+34DmIhIwFcyc5NWlYh2ver6CwyErQxAUS/eRpP2Vb/63IeCkiSpmSkqnLzy80AkDElSgVi8Wk8fk8WlGRjAgEgUB4M5n69eLcuDtHAiZNGC7SaDTUbz9/7aZSaalho75JM2dLa9QljtcrV+8oGtSvzTl6/ILMzo5Pl0ikxm5dgnmJiWn60I5BvK3/HCxjqnoRHET2jA7tWhbP8tMzcnR79p2UAsDps1eUp89eUQKARCozmgWiKrBZrGKnebvgFryVa7ZJjh6/KC+QFBlFIiE96vZ9tb29HZ3NZtFatmjE2733RNG0rxfnrV/9Pa1Z0/pcAJBK5VZ+B51Wj4fxCcV+BalUbtRotNT40YMc2gW/x9/x3zGpuKDIIFcoKQDgcji0IlRPXiERCAKBUO2kpWfrf/5lQ97ald966HR6avW6fwoWLlkvVqnUxaIQfvG6ouV7jXnTZ/2SfejoOQVgMkHduLzLr/eASelhG5d4ffnNkuzePUIElREIDodNc3F2YHA47HIzjiOvRSsGDpuaCQAKpdpoeT0uzg4M87+dHR1eKByVaRFV1aa1qebUvzuOSAHgk4/7C//avEcqsrejvx/UjMPjcWyeQya3jpry8HBh3o86HGD+Pfz8NXn3fhPSS++nVKooAGCzmdWWcU0EgkAg1Agr1/xTaDAYqcPHzyueJqSWiQrasu2AdNv2Q1KFwjSw8Xhc2uwZnzrt/O94Udcuwbx7cY/VTZvU5eTmicu1N8ktBtOgVk34eWmRdSu6Jp1eD1sOZw6HTStvX4VCXWlzDUWVbOrr48Gq7efNTErJ0Ds7iRj9+3QSrt2wsyhfLDGEhgSJyjuGSmUd0qpQqIx7D5wuLlQYey/epuOdw2GXuYaXhQgEgUCoEfR6PVb8EVZuFJLawsTk4GBPP7J3rfeFSzeV3p5uzAljhzgO+vjL9B1bl3qNmTA/q7xjHDxyTjFowHlp61ZNeEIhv8yMXKXWUlqNjjKX+FAoyg8bLV0GRKvVUekZObqVq7cVPO9ezVBG69G5a5dg/t9b90lbtWzCadyobnHoa/t2LXnlHcO8EjBTKJEaxk36Nud55+bxTPWcjOXUvHoRiEAQCITXCpvNorVr25w7+9sVud27BAsSEtN0fQZ+nrZq+Wy3Q0fOya7duFtuNJNMpjAOHD7tuRFG/+46WqFRXqPRUiL3tk9e5PotycrJ0zdqGFj8e//eoXYPHiZo+/bsKPD2cmOFdmjNU6rUxjatm/ABwNvLjdW/TyeBr68nCwAMBiMVHfNQAwAKhYqKuhOnys7Jt7mCepKYouXxuTSl0rTCadGsIUepVBsLCqXVViac1GIiEAivFR6PS9u/a7VXsyb1uHfuPlALhQJ6w/q1Oct/D8tf8UeYpDpNJjXNhwO6CQ7sXu37ovsfPBxe6ZBaS+h0Oi6eDvONf5Ks/WzK989dbVQWIhAEAuGNwMvTldG0SX2OVqujrt+MUVs6kN8mDu9Z4zWgX5cqR0BlZ+frW7UfkpSZlVfp7HEAcHdzYWzesMijWZN63PfeH5QsLiiq0v4VQQSCQCBUG4MH9rDjWkQRpaVn6QQCHt3JsSRCKOLqHZWrsyOjceNAtrmV6IVLN1Qh7VrzMrPz9Pfjnmh7dG3HzxMXGtLTs/VBrZtwYu891nI4bFr9ev6sqDtxGqlUbgxu24LL43FoAJCSkqW/HBmlGvRBdzsOm0Xbd+iMXKPRUmw2ixYaEsTz8nRlAIBcrqKuXL2jUms0VJfQtjx7ewEdAPLyCgynzkYqRw7vKwSA7buPyQIDfFntg9/jJiWl6y5H3q500h6Px6Vt+vMn9xHD+jhUpVXqth2HJDEx8c89j4ODPYNGM5nmAmr7snr3CBEmJKZqB4+YnpGQmFatBfuID4JAIFQbnUPb8Ht172AXGODLjrwWrdiz/7Rs4qdDHBo3qsM9fuqyLF9cYHiamKqLPL/dn8FgYOee4xKjkYJCqaK2b/3N+2LELcWiX9bnb9/6m3fUnTjVvgOnpb/+/LV7UnK69nJklHLMyIEO839YlfPhgG72Qa2a8PbsP1UU3LYF39fHg9Vv8Oepmzf85GkvtGOcPX/tSW6e2PDJiP7Cv/9c5PXocZImMSld26dniPDE6QhZzL1H6nkzP3ONiX2kvvfgqTohMVV74nSEcujgXvb9+3QS5uQVpE4YO1g0dFBP0eCPp1epdIVKpaZGjZudvWLV1sJRH/cXuru7MEX2dgwAaB/cgu/oIGLY2m/MyIEOGFnxsY1GI8LPX5NrdXpKKpMbsrPz9SPGzso4fuqywmis/g6lRCAIBEK1MXXGz7n//buCERjgy96++5h0w6bdRRM/HeIAABcu3lDcun1PfeNWrNrcJGjUuDnZFEXhg/6dBYCpQmnL5o3KFLqr7e/DtiyVzWSa9l++amvBL4tmMHx9PFhMJqPMdJ3JNOUERN2JUx08HC7r0zNEyGTQaeaEtoNHz0l37Tkhq1/Xn13bz5u5YOHqvD49Q4TTp4527BQSJIi6E6ey1Qa1MkTHPNSYHc5mWjRvwDmyd52Pr4/t8uMVodFoqS9mLMraHHagWpIGKwPpKEcgEF4JoSGt+d0sahXZwsPNhdmta9ltZHKFwc3VuUYmtONGf2h/ZN8638EDe9jF3nusPXgkvKh3jw5CHo9D/2HRmrzqPNfdmEeatiEfJYefvyavyn5PE1I13fuOT3mV4gAQgSAQCK+Ih/GJ2szsfL2XpyvDHJk0Y+pohxlTRzuYZ/qPniRpl67cXCbv4K9NewotC9CZ9+/Tq6PAw83UW8Iy2GnMyA/sJ3/2kYhOo1MAUNvPmxXaoTW/eP9nqQItmjbgNqpv3Y1u45Z9RYCpquqJ0xHKarl5C7Jy8gzd+01IHzJiRnrktWhFRVFaCYlp2tnzV+Q0bjUgOeLqnRcqXvgyMABMBhEKAoFQTQgEPFpGZo7u7LlryvSMbL290I4W/yRJw2azaG6uTozomEea6JiH6sTENK2ziyPD0VHEOHfxuspgMBgjrtxW3o5+oGEw6NSVyDvKqOgHGplcYdh36Iw89l68OjEpXRt+4ZrycsQtZX6+RG9nx6cnp2ToTp6JkO/877hcwOfR7sY+VDk4COlurk6MzWH7ZWqN1lBYKDXQ6DRcvRat2rhlryTi6m1VQYHUoNPrqSKp3Hgz6p7q3IXrquTUDD0oCgwGg7oSeVt5+UqUqqae08NHCdot/xyQ/h22T3Iv7qnqbuxDdUxsvPrcxeuKfQfOSOd+vzLv2x9X51+9Hq02GKrfv1AJ9DQAlwG4vo6zEwgEAuGNJYcOoNJp5AQCgUB4Zyikg+RBEAgEAqEscXQAN173VRAIBALhjeMmHUAEgGprck0gEAiEtx4NgCt0AGIAx17zxRAIBALhzeEogAJzeOtmkFUEgUAgEExasBkw5UEAQCEAA4Dg13VFBAKBQHgj+B3ABaBEIAAgBkADALVfxxURCAQC4bVzDsCvACjAWiAoAGcB1AMQUHY/AoFAIPwfcxbA1wCKO9iVLjtrBHASQC6ANgDYr+zSCAQCgfA6UANYDeAXmFwNxVTUzcIeQF8APQDUAuCOsoJCIBAIhLcLA4AcAKkAzgA4DsBmldj/AWLV2IKeEEKBAAAAAElFTkSuQmCC;" vertex="1" parent="1">
          <mxGeometry x="910" y="360" width="272" height="136.69" as="geometry" />
        </mxCell>
        <mxCell id="6h07Z5NQ0SASVdav4_DB-344" value="" style="shape=mxgraph.signs.safety.high_voltage_1;html=1;pointerEvents=1;fillColor=#e1d5e7;strokeColor=#9673a6;verticalLabelPosition=bottom;verticalAlign=top;align=center;sketch=0;rotation=0;flipV=1;" vertex="1" parent="1">
          <mxGeometry x="1021" y="513" width="31" height="98" as="geometry" />
        </mxCell>
        <mxCell id="6h07Z5NQ0SASVdav4_DB-345" value="" style="shape=mxgraph.signs.safety.high_voltage_1;html=1;pointerEvents=1;fillColor=#e1d5e7;strokeColor=#9673a6;verticalLabelPosition=bottom;verticalAlign=top;align=center;sketch=0;rotation=11;" vertex="1" parent="1">
          <mxGeometry x="1021" y="250" width="31" height="98" as="geometry" />
        </mxCell>
        <mxCell id="6h07Z5NQ0SASVdav4_DB-346" value="Скорость&lt;div style=&quot;font-size: 20px;&quot;&gt;Расстояние&lt;/div&gt;" style="text;html=1;align=left;verticalAlign=middle;resizable=0;points=[];autosize=1;strokeColor=none;fillColor=none;fontFamily=gotham pro;fontSource=https%3A%2F%2Ffonts.googleapis.com%2Fcss%3Ffamily%3Dgotham%2Bpro;fontSize=20;fontStyle=2" vertex="1" parent="1">
          <mxGeometry x="1067" y="265" width="138" height="61" as="geometry" />
        </mxCell>
        <mxCell id="6h07Z5NQ0SASVdav4_DB-348" value="" style="verticalLabelPosition=bottom;verticalAlign=top;html=1;shape=mxgraph.basic.drop;fillColor=#fad9d5;strokeColor=#ae4132;" vertex="1" parent="1">
          <mxGeometry x="1205" y="389" width="20" height="29.34" as="geometry" />
        </mxCell>
      </root>
    </mxGraphModel>
  </diagram>
  <diagram id="qDYl6Y_0ktkOVkfawzxL" name="Страница — 2">
    <mxGraphModel dx="886" dy="526" grid="1" gridSize="5" guides="1" tooltips="1" connect="1" arrows="1" fold="1" page="1" pageScale="1" pageWidth="1654" pageHeight="1169" math="0" shadow="0">
      <root>
        <mxCell id="0" />
        <mxCell id="1" parent="0" />
        <mxCell id="67nn3bJeUpM4fDcLrt_K-32" value="" style="shape=ext;double=1;rounded=0;whiteSpace=wrap;html=1;fillColor=#fad9d5;strokeColor=#ae4132;" vertex="1" parent="1">
          <mxGeometry x="435" y="365" width="345" height="135" as="geometry" />
        </mxCell>
        <mxCell id="67nn3bJeUpM4fDcLrt_K-10" value="COSMOILER" style="text;html=1;align=left;verticalAlign=middle;resizable=0;points=[];autosize=1;strokeColor=none;fillColor=none;fontFamily=gotham pro;fontSource=https%3A%2F%2Ffonts.googleapis.com%2Fcss%3Ffamily%3Dgotham%2Bpro;fontSize=20;fontStyle=1" vertex="1" parent="1">
          <mxGeometry x="540" y="365" width="145" height="40" as="geometry" />
        </mxCell>
        <mxCell id="67nn3bJeUpM4fDcLrt_K-12" value="" style="group" vertex="1" connectable="0" parent="1">
          <mxGeometry x="1265" y="935" width="278" height="143" as="geometry" />
        </mxCell>
        <mxCell id="67nn3bJeUpM4fDcLrt_K-1" value="" style="rounded=1;whiteSpace=wrap;html=1;arcSize=5;" vertex="1" parent="67nn3bJeUpM4fDcLrt_K-12">
          <mxGeometry width="278" height="143" as="geometry" />
        </mxCell>
        <mxCell id="67nn3bJeUpM4fDcLrt_K-7" value="" style="shape=image;imageAspect=0;aspect=fixed;verticalLabelPosition=bottom;verticalAlign=top;image=data:image/png,iVBORw0KGgoAAAANSUhEUgAAAYgAAADFCAYAAABO8mUgAAAABHNCSVQICAgIfAhkiAAAAAlwSFlzAAAewgAAHsIBbtB1PgAAABl0RVh0U29mdHdhcmUAd3d3Lmlua3NjYXBlLm9yZ5vuPBoAACAASURBVHic7J13eFPV+8DfO7Ka2aZJ2qa7QFtaWlpG2XsP2ciQL1OGAxFRAUGGojgYooAoiOIAAZUpe8mQWUbLptCZzrRNmzT73t8fsdCR3JsuBX7n8zw8D2lu7jn3nnvPe847MXCNDAD6A0BPAAgCAAUAEAzHIxAIBOLpxw4AeQCQBgBHAWAfAOicHYi5+NsIAHgHAIQN1EEEAoFAPB2YAGAtAHwHAFTFL6oKCC4AfAEAXf6VbiEQCATiaeEYALwJANbyP1RUGREA8CUg4YBAIBD/HwkFgAgAOAgANEBlATEVAEb9B51CIBAIxNNBCDhUTokAT1RMYQDwBwBw/qNOIRAIBOLpwAIAgwHgEf7PH6YAEg4IBAKBcNiiJwM4dhByADj+zx8RCAQCgbAAQDccADoBEg4IBAKBeAIXANrjAJDwX/cEgUAgEE8dCTg43JoQCAQCgahIUxwcNggEAoFAICrihYMj5xICgUAgEBXxwgGA/K97gUAgEIinDhJnPwaBQCAQ/x9BAgKBQCAQTkECAoFAIBBOQQICgUAgEE5BAgKBQCAQTkECAoFAIBBOQQICgUAgEE5BAgKBQCAQTkECAoFAIBBOQQICgUAgEE5BAgKBQCAQTkECAoFAIBBOQQICgUAgEE5BAgKBQCAQTkECAoFAIBBOQQICgUAgEE5BAgKBQCAQTkECAoFAIBBOQQICgUAgEE5BAgKBQCAQTkECAoFAIBBOQQICgUAgEE5BAgKBQCAQTkECAoFAIBBOQQICgUAgEE5BAgKBQCAQTkECAoFAIBBOQQICgUAgEE5BAgKBQCAQTkECAoFAIBBO+X8hIDAMg8+WzfEOClST/3VfEAgE4lnhuRcQGIbB5g0fqt6aNcH75KHNgYEBfkhIIBAIhBs89wLim7VLVONfGuwJABAcpOYeP/BdoFIhJ/7rfiEQCMTTznMtIGZMHSWdMmGYZ8W/hYUGcH/f9oUfh0Ni/1W/EAgE4lmAAIDX/utONARdOycIfvruEzVBEI8FAYY5/hsY4MtVeHvh+w+eMvxnHUQgEIinnOdSQIhEAvzw3o2Bci9pJVVSuYAAAGgRHyW4euO28e69VOu/3kEEAoF4BnguVUwrP5mrCAr05TAdg2EYrF210EciET2X9wCBQCDqynM3OSa0iuFPHj/Uk/1IAH+1ivPBwtflDd0nBAKBeBZ57gTER0vf8MZx9y9r6uQRXig+AoFAIKrzXAmILh1bC7p1biOqyW/4fB62YO40tItAIBCIKjxXAmL2zP+5pVqqypiR/aUymeS5uhcIBAJRV56bSdHPV0H06dVR7Oy7lIcZlnPnrxmSku+bzGYLXfV7Dw8+PmX8MEnD9xKBQCCeHZ4bATFh3BBJ1eC3Hb8f0kU075/SKLrPww7dX8qIaT04VRnU8f78RatzS/UGquKxY0b1l/67PUYgEIinGwwAbv/XnagPzh3/ObBtm+Ye5Z/nLliZ+8nKTUXln3EcB4p6IhNiY8K5x/78LkjuJSMAACiKguCIng8yMnNs/2rHEQgE4inludhByGQSvHWrGEH55193HtCVC4fBA7sLr53/LdhUdDU8N+2vRps3LFOJxUL8+o27lolT39OU/wbHcRjyQs8aGbgRCATieea52EEMGthVuOvXrwIAAGiahiYx/VIepKRbB/TtLNy1/csAgqicm+/MuURDp57/y6BpGi78tS2wdctmHgAA2387qHtx3FvZ/8EluI1IJMLFYjFGkiSGYRiYTCbaZDLRZrOZNpvN1ewr9QVJkiASiXCBQIDx+XzMarWC1Wqli4uLqYZstyp8Ph8r7wcAQPl1l5SUUDT9r3XjmcPZ+FksFlqn0/2r44dwDY7jwOVyMT6fj3G5XIzL5WIEQUD5+200Ghv0HXfGc+H/375N/OPdw70HqeYHKelWAIAFc6fLqwoHAIAO7eKFPbq19Thy7FzZwcNnDOUComV8lKDawf8xKpWKaNWyBa9b1/YeTSPDeZ4yESEW8XGSJDAMAzCZrLTJbKXMFhtkZeVar11PNp2/mGi6efOWJS8vz17bdjkcDtaoUSOyR/fOwhbxzfjBQf4cidgD5/M4GI/HxS0WK2WnKCgqLrNrNLm2U6fPl50+87fx9u3bFputfrV0AQEBZO/e3T06d2zjERYawBV68DGBgItTdhosFhttsdroAm2J7f6Dh5a/z182XryUaE5NTbWy9UMgEGCenp6Mu2iLxQIFBQW1vo/OwDAMfH19WTMK5+Tk2CuqRWsCh8PBGjduzOnRvbNHfFx0pfHj83m42Wx5PH5ZmhzbX6f/Nvx1+rzpzp07tR4/DoeDKRQKVq2EXq+nS0pKnF6YTCbDPTw8WBNpZmdn2+u6IFCpVISz+aE+MBgMtE6nc3qN3t7ehFKpJJRKBdE0sgk3vEkoNyQ4kCORiAkel8Q4HBLjckiMyyUxgiAws8VCmUxW2myx0hmZOdaLF64a/754xXTz5k2Lq/tYXzwXAiIiPJRX/n9Ndv7jpzsqshHf1W9aNG/KO3LsXFl6puZxLqagQD8un8/DTKb/dkWF4zjExcXxpk8dL2vXppkgvJGaR+AUBjTLPNUqFEYO6SC1WIG6eTfDfP78NeN3P2zVJSYmmt2daKRSKT5s6CDR2NFDJFERAXyVQkI62mX6fSiMHNJJmpVTZL105Y5xzdpNRWfOnDVZrdY63cfAwEDynTkzvXp1TxA2DvXhAW1j6Ic/9O7WDF55eQikpudbric9MG3cvLX42LHjRlerru5du3h8/ul8JU1RLvt590GG5cXRk7Prc+U2bNhg0ZKFbyhwDHN5zqRbD80vjp5U492sTCbDhw0bJBo7arAkKiKQr/QWuzV+Lw7pLM3ILrJeunKnbM1X3xSfPfu3saaCIjAwkNy57Rs/Ps91pmQMx7EJU97WnD9/3uzs+6WL58p7dmsrZGon8fo909hxL+fUqHNV4PF42A+bv/IN8lfW+xyIEwT22qxFuUeOHCtz9v3Hy973fqFfe7G3XErgGI0B2IH13S6nZSi8OKSTtNRgoa4nPzJu/mGHbsfO3/WlpaUNIiieCwERFhLwOO+SRPwkt1JevtYmEnlwnf0mS5NrAwCQSZ7EPxAEAZHhodyr1287fXj/DUJDQ8kF89/0fqFfB5FcxicdL7YVwK3piQKgKeCSgMdF+QjiogcI+vbpKB4yYmrmtWvXGK+Jy+Vio0eNEL0y7SXPFrGhAgK3OV5y2p1chhQAbQa1yoOj7t+S07FdjMcvOw7pPlz2eWFtdjE4jsPI4UNFC+a/qogK9+UBbQegLSy/ogFoG+AAEBoo5YYGtuJ279JC9MW6rdr3F32odfaLtu1a8MPDvHlAu363VEopJyoqipOYmMjWAbcIDQ0lP3h/lndEI2+e66MwOPP31bKarJB5PB42ZvQI8fSpY2UtY8MEOGat8fgF+HhwAga0knZu30z407aDumUfryjMz893e/yaNArlxEYFCDBw3WZGdqlVo9E4PSeGYdAsKpwf0cjb5cIOAIOjJ87XOQuzSqUiosIDeP6+YsacbbVBW2y2paamO70JHA4Hi4oM4SnlfBLA7OZ7XREKgLaA2APwDq1Dha3j3xP07tm5dM67i/IzMjLq3cHmuTBSe3vLHgu6qMgwvlgsxAEAdu89XurseF1Jqf3A4dNlAADt28Z5VPzOR/XfFBPCcRzGjhkpOrDn+4CJY3vK5DIuybzqcwPaBgUFWtuDBw8YZ4nQ0FDypx/W+3y95j3f1nGBHo+FQ63apEAuI8lXXx4s3/TNapVaXbM0JjiOw5y3XvfcsPZ9v6gmSp7bK6tqUODBJ7AriddMro5oGt6YUTgAAHhKBcSwoQOcxtfUFKFQiK1Z9YEqopGSYQIEAIyAxKvJbi9SwsLCyJ+2fO2zfvV7Pq2bB3o8Fg61gbaDXMYhX58+VL5xw2qVn5+f2+9DmzYt+BjGfD812Vpbbm6u00H19vYm/Hw8mZ8XjITLV1yPqbsEBweTfj5eDbJAzszS2nJycpxeo1KpJHx95PXULg1c0oqPHNJBun7tp0pvb+96n7ueCwEhEgofXwefz8NenzFWCgAwb9Hqgn0HTlUSEsW6EvuY8W9nFWiL7UGBarJv706VPJekEvG/fk94PB62ZPE8+fo1C/2ahMrrMClWBYeLl5PL9Hq9y7e2ffu2/N07N/qPGNROyufS9XbtOFhhQO+Wki9WfqSUSNyPUn9r1mueC+dOUUiERJ37cv1mmun48VNGZ9/xeDzM19ebffVI26BblzZCsbjuz8Xbb73u1ad7vJhN8FttQLs7CXbp0lGw5/eN/sMHtpHyuFS9jt8LfVtJVq/4UOnutUdGNuGzPbsaTYHVlbrO19eX8PdXMI6J0WSjrl67WecdfkLrWD6OUw1SNCw7p9DqSuXj768m/f3k9btroa3Qt0cLyVtvviar1/PCcyAgSJIEgYBX6Trmvz1V0TIummc2W+iBw17JSug06tHMOR/njHxpdmZYZJ+UPw+dLuNyOdjPmz/x5fO5lX4rkf67AoLH42GfLl/s/c4bY73FHjXIMugGFitGbdu+S+/q+8GDBgp/+WG1OjpCxa/zbsUZtBUG9W8jfv3VaW49uAkJrflvvTHOSySoh/uAEXDk6FmDqxdVpVIRfr7ureRimgbz4+KaO1VVukvvXj08Xp02wpPA2e9zRlaBNStLw6ouGDZssGjLps/9mjZWNtj4DR7QXvLKjJdZg0i5XC4WoGbR52M43L533+XkHtc8iufB5zCOfUZmnjU7O7vOK6iY6ChWYVY7MHjwMNWlOjKhdRyPJKDeBRMOVhg+pKc0JCSkXndFz7yAEIk88IqFgAAAhEIBfvTAxsDRI/uLAQAuXk4yf7nup+Idvx/SFxbrqMaNgjinDm8JaN82rpoxTCz0+NfuCY7jsHTJPPmMyYO9uBy63h+aG7cema9eve70hezSpbPgixXv+QT6iepdB1sRErdh48cNloaFhTG2IxAIsI8/eFehUgjrpT95BXrb9z/+qnP1fVBQAKl2U8XgIcDx0SMH1zoVi1qtJj5ZNlfp7cl3q73s3EIrm+2mR/euHqs/m6cK8G3Y8eMQNmziuMEytonHoTrxYukLCRcvud4ZtWzRnO9wRHCNJqfIptVq6zSz4zgOAQE+DXPfWFRgcbHRDSSYAMJClNyO7dt4sB/pPs+8gDAaTU63q1KJmPjl+0/VtxL3Bq/+dK7irZkTZIvee8Xrz10b1MmXd4e2aR3j9EYa/0U/48mT/id59eVhXhyyIba6rtVLjRs35mz46gOfQL/6N9A5o3GIgjd2zHBGPX6f3j2F7dtEetTCaueU85dvl927d8+l7SWhdTwfx90UyrQd2iQ0FygUihrreLlcLrZqxVJlbJSa2e5QgczMHBuTB1F4eBPuujVLffx9GlY4PG6vkQ9v9KihjOPn768m1Sw7ssLiUvvt2/dcrq7DQoK4bOOflqGx1tb1txyHraNh7A9MKjAMwyAoyI/DeI0YCYBxAXAeAMZzfHYTjLZCv77dGT3Aasoz78VkNltoi8VKc7kcpy97ZEQoPzIilE9RFLhTJ6JE1zDuYlWJiWnGXThvukJYI3UKBoBxwGqjab2hjKJpoPk8Hu7hwcUdnj42KH/4XKmXBAIBtvLzRcomod48tydjjASKJqBUX2bHAAOJxIMA2uq+ax5thb69OotWrPyqyGAwVGuUJEl4efIoKZdkm7BxKNSZbanp+Vaz2UpxOATmKROTAWpvkssBvPz6KZqkt/z4WwmTF1BMs0jW1WpFosLV/DYJLfl79x2okQfNG69Plw3u11bitgoIIyDp5h2XK1ChUIit+nyxonGInHUyfXJOx/iVlBrsOIbXavz69ekqWrV6XbHRaHTaaEKreD5JAMbUpcwsrdWV8VYsFuN+viy6eYyEG0m36myg9vPzIwLUCk5DqOWYVGByuZzwVTHvsk6du2PY9P224tISAyUSeeAxzSJ5nTu1EbZqHsLoHeaABpWyfp1snnkBAQBQqjfY5V6yerkWXYlrg259IRAIsE8+WqAI8JUwrybKwUi4cz/bdOXaPdPhIycMd+89tJaVlVEYhgGXy8X81X5kTEwkr2WLWEFYiB8nLNiXe/NOmlP10szXp8n6dm8pAmCfHOw0AVeuPSo7fvJvw58Hj5fpdCV2giAwpVJBvDj8BXGPbgkih4qD/ZY1aeTHDQkJ4SQnJ1dbQQYEBJDNo13HrDjuAQG7918oWfzhKm1qaqrVZDLRXC4XUygURECAP9mze2dhm4R4QXhjf662sMR29NgJpz7oAA4VQ2CAX41W3xySxkaPGiauiYDo2LEd/83XXvLisAq+J9BAwIWLrlUUM1+f7tmraxyroRvAMX6Xrz4sO3binOHg4VMGnU5HlY/fqJGDJD27JQjVKqF74xfmxwsJCeHcunXL6Q4gPj6a1blCk11gcxXY5ePjQ/irmXcgFIXTFy5erbOAiI+P4fN5BM7kwZadZ7Ql306rcVtZmnyXKjDHNTIZ4TG4eeue6ccft1Z0rCn19fUtWr3iQ+XIIR2kbIsaPp+Lc7lczGKpnrW6NjwXAiI1TWOtLwFx975rA1N9MerFYaIenWPdmqSz8wy2b7//o3DDNz/oXPmPX74M5l279xgwDAO1Wk22bBnPCwoK4FRVLwUEBJCTxw/zJHA764SVk19m+2LdVu269Rt1zl7qQ4cOl3Xt2qXky1WLVVFNlHw2QeclE5KxsdFcZwKiVcs4vq+PjMPks590K9M0edrs3Iovn8lkoktKSqiUlBTryZOnjFwuFwsPD+cEBQVwXEWxAtRWxUBBfGxjgb+/P5mZmcm69VAoFMTnyxeofFU1s6nk5RZbU1IeOr0RQUFB5JQJQ2XuGLo1OQbb6rU/a7/+5judM0P9oUOHy3r06OaxZuViZWQjb9bxU8jFZHRUBNeZgMAwDAL8fVh2NBikPEp3aaAOb9yIK/cUk0zxLpnZBbb09Lr7+reKj2HdPd65n2bq3W94Zn2mb2keG8UTeXBxl885RsLlxOqLuuzsbPvSZSu1ndrHCH0UHozPLUniWH1Ghz/zNggAgHv3U1nd3h4+yjTbbHbG0TaZzHR5mo6GQiKR4NNfHuNFEmyTNAa37+ebXpr4btaixR8XuhIOFaFpGjIzM227du0xrFmzrrjq9/PenenZOMSb1RsnI7vUOmPm0uzln6wsYgrlP3HipHHBopX5RSVWN3QVdoiNjnC6S+jWtb0H2wubdPOhic04abFY6KSkJMu+fX8yrvKfqBhqRuMwX163rh1Z07GQJAmffbJI0To+tMapWzJzClz60L83b5ZXaKAX6/ila0qtM95YrPlsxRdFTBG2R48eL3t/yaoCnd7m1vjFxEQ5HT+HwGXxCMNIuJJ4w+V7mtAmjg/A/Axk57Ab790hJCSQZeeOQWpqlrW+c3u1bBHLaKA2mmxUYmKS011LamqqNVNTwDo3lepNlCs1YG14LgQEQeCMk+2O3w/peg2YkjFmwttZTINutlgoiUTUoPdk8OCBwpbNw1gNlumaEsvEqe/kHD9xwqkfPxtVrzMgIIDs07Mdq2rCYKSpBUu+zNu1e69bqpT9fx4oO3/5bhmwee7RFChVCqeTiK+vkmRbwSqVclIoFNaLMb9FuYqhhuBgg+HDBojZbFlTJk+QjhzcRVIbbxVNttbq7AUPDAwke3Vvwzp+eiNNLVi8Om/P3j9dqtgqsmfvfsOFy3eN7oyfj8q5kZ5ddfLP5Hc12aXKJioinDVoMSMzz1bXlCdSqRT3Y/O2wgi4duNmnVVZVWnUKIjLNH6ZmgKX9guKogBjSM1STnFRSb26SD3zAmJgvy7CEUN7u/TTNpks1KGjZwwPbh5s1KNrW49DR886ja4GcHg+rV+9UNUwPXWE2Y9/aagUx5gjlc1WjF649Mv8Cxcu1ttDOnHCaElIoJxl9YnDz9sPF//001aX96gqVquV3rP3sJ7d24IGiUjo9HmTiMWse+JO7aI95s97y6s+AtZaxDfj1cRA/QQamjdrxA8NDXU5wcTFNefNnTPZW8DHatFPHO7eS3GqY5ky+SVpkL8n68T2w89/Fv/8y3a3x89isdD7/zzm1vhJXcQIxTWP5gkFLPELWfkuJz8ul4v5sQWPYQTcvnuvzu+DSqUi/NXMbdnsQF+8xJyapqaIRCLcz8f5AqkcTU6hzVViSE9PT9xTJmYZJBwysjT1qgF5pgWESCTAv/lqiU/VOIiKnD2fWDZ6ZH8JjuPwv7GDZPsPnHIZOAYAMGpkP+nggfXrKlZOZGQkt0VsGIvaAYOjJ6/qf/11J2M/awKfz8f69e4kYlvRPkzXmj/8aFVhTd0IryReN1msrhPesWGz2Vh/yyVt+JyZY+WbN631iYmJqVPQWmhwoPseQFUI8PPiDuzX2+nzIZPJ8DUrlyqD1NLauZ9iBFy8dL3aJCgQCLA+PToI2cbvXkqe5aPlq7U1Hb+Ll6+arDZ2fYqrt6xlixj2COqcIpeTn0qlYldRAQGXLjmP6akJTZuGcz2lIsYFSaZGa83IYLcz1QSVSkX4+zHvXNLSsly68DaLasoNDmDepdFAwPETZ93aObrLM22knjFltNTHhzldwvUbd03jXxrkCeCw8Juc1KSuynvvTvPetfdYnROCVWX0i4NEUgmPYNpKmy0YtfKLjYX1mT00OjqKG900hEWthcMfe06U1ibhV2FhIVVUpLepFAKWlZlzG1BpqcGtGY1L2vBhA1tL4mI28L7etL3ou++2lNY0aEoqlbK7UzJBW6B//26itV9/q6voKYLjOHy4dL53hzZNWCdyV5QazFTyzeqJImNjY7jRkUGsXl6/7z5a4o6tqipabaG9WKe3K7yYA/ksFueCPCyUWXUCAJCe7nryCwwMIB0CwvXiV1tYart9x3UMhbsktGIPxhPw+fhPP6z3dfec2bkF1slTXs1l0v2HNwnjeHtJXF8jRkJS8m2XO6SxY9k1D4/S8y2XLifWq2rsmRUQJEnCq9NHe7Idl5tbYC8vKwoAQLPoOQEcdSG6dk4QnDh1oVb6f2dgGAbxcTF8Nj1r4o0Hpr//Pl+vgzxi2ACxkI/jTC9xkc5k/36L68hjJtwz5uGQnZPn9M28ei3ZNGRAG4lbah/aDqGBEt7Hi19RDRrQQ/LBR18UHD58xO3Mp46VHLs6g2mSb94slB8REcG5cePG4wlrzOgR4v+N6SNz/bvyzbrrMcjIzLc4S2Q3fGh/sYBl/LSFZbYtP+1o0PHLyc2tNkBisRhXsyzS2Ca/tgnxfIKgWWIoClwm+asJkeGNeWzCTOXNI1XeYW7PjXsO6UrYDMOtW8c5Ehm6OIqiMPrCJecuvC1btuD16tZKxGZYv3TllrE2CwQmnlkVU5+e7YVBgX6sqgY+n1dJ6nK5XLcMndMmj6jXxFdKpZIIC/FhtQH8dfpyWX16IWAYBvHNo1lfimvJD0137typlf6SJEngcFkstxgO6elZTs9/4NAJQ16BoUY7FwKzYO1bhXps2fiJ37y5czxFIvecCyIjmnA9Zcwqhpt380yAuZ7z5J4e5IhhLzxO8hgREcFdsnCmQuzhyvCNQWJSppFiWY9l52hthYWFlQYKwzBoHtuUNdfStaSHprt379Zq/AiCAC7XdQ0HR0dwSE3LqHZ+lUpF+Pt7s8QvYPTfF1yvbJtFswctZjEkwHMXPp+PqdXMdoCag8Pduw9ZdzZNI8IZ1XBZOYW21NT0ajdBrVaTa1YsUaq8hYz9LjXYqPXf/FDNc7GuPLMCYvALPdyqH11bV7We3duKSLL+nqWoqEhucICSUUBQNEEfPnaqXlVbCoWCCA5SsQgmDJKS75lqW0lMofAmZCx6XQAcHqSkOp3Arl27Zj568oobhtKqUKCUc8n3505RrP3yc7fSHbdJiGOejDAC/jpzuSwzu9j1ZEvboFvXNqJ/yr/ia1YtVYYGerq8x1k5euup01fKcMZU2Bg8TM2sNtH4+PgQwYHsC4vrSbdNtU1B4eOjIiRiD9bxu3+venxGRJPGjvgFBjKztS7jF3Ach8BANYvKD4OUh4/qrF5SqVSEWlXPmVQxAi5eZs68y+VysQCWwkSa7AJbRRdemUyGDxs6WLjn983qtq3ChGy7h6MnE0vPnj1fbxqPcp5ZFVO/Xh3dEhAkWXllVPWzK7w8ZUTnji0Fx07Uz03v2b2TB8GSXjg1I996px70rBUJCgokA/2VXMagPIwDx0/W3rgVHRXBwzGa8Rk2mqzUIxdFVGw2G7y/eLk2OjKMH9PUt8aZSXkcG/7Si91kNL0UXn397Vxn6TzKYVcxEPDnn0cMgYF+HH+fGJf+8jFRIfzY2BjuoIG9Rd07NRO5OqfVhtMrVn+vjYqOYI40xgi4kphUzf4QHBzECQpQcBhjBDASjp04W+vnNCYqgoexuc8aTFRaRla1TjjiF5i1GkzxC+7XgLhRDzUgAjlKlZT5XtYQXamRunnzDqPx3J1EhgKBEPt67UolyeFgnjIJ4ecrJ6PCA3hcjp1RtQgAkK4psS5YtFxb36V+AZ7RHURYaADH19e9QCeJWIgbjebHd5isQeqjrp1b11tmRHcMeQXaYrtWq63XVB/NmjXlcTnMcSIGo4V68OBRrd3j2rVpIWAzzD54qLGkpaW5fIJTUlKss95emvsgtchcm8cSByuMHt5dMnXqBJcuzzweD/PzZVaHaAtLbXfu3bf89vu+UppBzSTyIPB578z0enniYC/XOwMcfttzumTdhk26YJYkbRYLRV9JrD4JNouO5LKlh9aVllGPHqXVemGR0KaFgE3Fc/9htsWZA0NkRBPWFBuZmjyXNSB8fHyIAD9mG4YjAZ77BZRc0SahBZ/A6zf4LTNTa2FLP+5OIsOYSB/+hDHdPF8a0VHWv2czcVy0n8AhHJgpM9HU8hUbiQTh0QAAIABJREFUC27dutMgGSCeSQHRoV2825kxveRSIjev4PGDbapBjpJW8dE1joR1hVwuY1V/FBaW2OvTewkAIKJJGJftBc7LL7YVFRXVyrjF4/Gw8CZBrIn/7qdkmJnSXwA4IrMnT383+/L1DCOTDcAVXNKGTxo3XOaqCto/NSAYT5yeVWDNzc21Hzv+V9mDh7muXzraDv17xUtkYtLlO5R8R2Oa8+6SPKFQiLG5cWZotFaNpnoNiIjwMC6bY0OBtsRaXFxcq4WFQCDAwhsFsNryHqRkmKvaALhcLubvx6LTxwi4fee+y/vYIr4ZX8ASQ5GemecyyV9NiIluWo/FuBxocrU2tnv/OJEhI1SFf+5htgK9Zv127YYN39XKOcEdnkkB0bxZ9ZQNen0Z9cmKjQUmk6XSHZZ7eRI5udrHL56zJFZbftldfOfeo2orlGZRTRjqBruPUCjE2HX0ACaTtd4TBQYE+LEmY7OYLbTVWrsNRPPmsdyoyGDm+4SRcObsJbdUIH/9ddo0fNTLWRu3HCws1NlsNX1EoyL9+d26dnS68wsODiZ9VDJGAZGdU2grLS2l0tPTbddu3DMyts+QO6pQZ7bPmbc8Lysry+7j40Oq/ZiDFF3VgAjwd2P8LLY6jF9zXlQEmwstCafPXqimglSpVG7UgCDgIkPywZYtYlmDFrProQYESZJu1oDA3f+HEfAoNZ115d48NqreBZPBSFOr1+3QLlqyvMZxSzXhmbRBBAdVNmodOnq2dOqri3PTMzS24CA158XhfR+rGVRKOZmRkW0FcNSi9pRKK73xen0Z9dqby/JMJjM9960pnu+9O03B4zk8nZRKLw6Xy8EsFmudw/vdERAE80KqVnh48FltLnQdClyNHzdCIhIQjHrSEr2ZOnr8tNs2jrS0NNsrr72Vv+O3zvp33nrFq1PbKCGHdK9ONkbboFvXDsKffv61WjRx24Q4AYEz2UowePDgiTF066+7S4YMbC8ha1iakqJx2PDdH4WHDh0pAwCIiYniSUR810naACAjI9tpDQiBwI3xq0POoAn/GyFxRH27PoeuxGQ/dvxMtfELCPAn1WzxC0Wltjt3Xe8gQkPYghYxSE3LstR1EnSk2mZJ6Ilx4Nc/Tut0OvfTVezZe5QxoNVRA8K31oGZ1cEhXVNiXf75twXfbvxe1xB2h4o8kwLC39+xEqAoCj7+/Nv8hUu+1Ja/JGu//qVo5LA+0vLoal8fBXnh0vUyAICc3AKb2k9ZSbhs23lAVx6o9cHyrwv/OnPZuOOXVWqFtxdJEAQEB6nJe/ede9+4C5/PxwU85/UqKiIRiwmSJKE+B53H4bJKHanEg5BIJHh+fn6NljlBQUFk357tWfMDXUq8V1ZTF1qr1UofPny07OLFy6ZxL40ST5syyjMq3I/PNMk6oECplDu95mbRkSyGYhIuVagGdvbc36Y79zTm6Ail2ypNAAwOHL1a+tHHq4rK/9K6ZSyrgTrZRQ0IHpd91SCRCAmJRIK7ilR2RVhYGNm7R1sW/3qAS1fuOS2+1Mat+AWty+SDEokE9/Nhj0m5dr3uNajVajXh78dcA0JvsFBLP1yhdZXSvDbI5XI3osTd51GGzjL6fzM19ZmGh4lnUsXk76fimM0WeuyEdzIXLF6jrbiCOn0u0bR77/GS8s9KhRepyc63AQBosvNtfn5P3M1KSvX2BYvXFFQ896kzl42tOoxKLVc5hQT719ktDsMwwJntxAAAoPaVc3x9fetVaDP7FjlQKTyJwMDAGrWL4zjMn/uGV3CAa/dOR/skbNu+t8Rqrd0urLi4mPryq691g4ZNzvr1j9M6O83eTRKvHo/gKDPpyziWBqOVqjgZ5eXl2S9dSTYC5n765EcZxZbZby/Oq5hqvUnjEEbPKYrG4byLOgfu7A58lJ6kv7+6RjmecRyHee/O9ApSy9hcr+HnX3eVOFu0xDRr6kaKDa3L+IV/akAwjondjtEXL9e9BkSLFjF8Po/ZQyUjK89aH8F4FfH19SUC/GueOdgVKqWE5PNrsF6pI8+cgCBJEuRyGTFx6ntZ23YecLq9m/XOJ3l6fRkFAMDhkJjZ5LA7pDzMsFSc8D/8eENBbl71VVdaepatR79JGalpWZagQL86T9gWi4U2mtknyJAgBXfggL71mgfKZGQ3euO4HRszajBjScmqjBw+RDRqWHcZ2+7h9r0s0+49zOm33SElJcX62sx3885euMt6Ll2pvtqYKhQKQu3LXAMiw4kx9Odtv5eazO5ZDg1Gmlr0wZr8iqttoVCI+bIkacvLK7Y+epTmdGtUZmIfP5KgsNEjh9SoZvaLLw4XjxzSlXX8bt3NMu3dd7CaegnDMAgKVLOmzU556Lq+SniTRlwvGXOixszsAlt95EVqEdeMVZhl5xRZCwsL61VANG8ezfPgM+wCMRKSbueYriZrjFeTNcasXCPjFtmDj+NjRtW+PnpNeeYEhEQkxFeu+V67dcefLnV/aelZttdmf5hd/pkkCQwA4O7dR+YmjYN4AAAnT18yfP7F5iJX58jS5NmGjnojq/y3daGsrIzW602skwyB2WDKpBc9w8LC6m3FUVSss7OncrZDt86tRbGxsW4lwevWtbPHsqWzlRKRaw8eAADACDh45KyeSXVVk2DEgoICe0YGW7ZKHNJSq0f8qtVqQu3L7E6ZnVtorWoMvXw50ZR8O41dxYER8PP2w8Vbt+2sZPvw8fEh2ZK0ZWa7LsXp0Iezj1/P7m1E0dHRbo1fzx7dPD5a8qZCLGRJeY4RcODQab0zA7FCoXArfuHS5erJB8tp0yb+X6sBERbMXgPiYWpmvdeAaN0yljEw02iyUy+/Mj+7W68RGd16jcjYs+9kKTAlAqbtkNAqtlb10WvDMycg9GVl9IIlXxawHffDT7tLN2zcXph8875JV2qgTCYznZObb8/IyLFeupJsHDvhbQ3bw3D1+m3z5i1/lDAe5AZFRUX2Aq17hq+4aDX/268/V7Vo0cJtDyqxWIy3a9eWHxAQUO2FTUq+Y3YnQjk0yJP7+SfvK5mEE5/PxyZPHi/Z/O2nPqGBzKoJAIB7KbnmFavWuxTCISEh5Pq1q1QJCQk8d2o9NGrUiGwRF8Hoemyz4/SBwyeq7TLYVQzOi8TodDrqzLnLBmY1EwZnLtw3zF+wrFqwUmhoCKmQS1ijaF2lV0lOvmt2R8UVFuzFXfHpIiVTKnKBQIBNfXmCdNOGj32D/SWs43f7Xo551ZoNTsevPuIXmoY3Zq0BkZmVa61r+UyZTIazelthBFy/Vv81IMJCghkN1OmZedaUlBRbcXExVVxcTB0++peBopnHOyoigN+ubZt/Rc/0zBmpa+JRNH3mkrzy/0+ZMEx28MiZsm07D5Y606dKpWK8X+9OQj8fBfHgUZr16PHzZQaDkTYaTXVeUlAUBSmP0i1d2ocLWf2caTt07RAp2rltHe/w0fP6PfsOlqamptv0ej1FURRwOBzMw8MD8/SUEc1jo7jt27byCAsN4KpUcrJbr1HpVU934VKiyWKlaC7Jsgyl7dCjc7Tot23fkNt27tcdPHS8rKSkhKJpmhaLxXiHDgmCIQN7izu2ayrkcdhrLNspgv76m1+LmJKHzZg2QTblf308h7zQUXzrTqb55F9/lx06fNKQkZFhKyoqooxGIyUQCHCZTIZ36dxeMGfWFHlEIyVjzMWDRxpLUtLNamoNVhUDQ5GYrb/u0k8cN9BTKnJeyzErR299652l+c5W2m3bxAuYkrQ5cvk4rwEBAHDx8nWj1QY0h82PnrZDr64xot9+3Uhs3ban5PCxk5XGr3OntoJBA3uJO7ZtKuSS7F5ZNjtOr/9ma5GrILDH8QsMTgNM8Qs8Hg/zZcuqixHg76/mbPtlk9uZVQEAdLpS+4L3l2nLd64qlYpQs9g6ACOge/eOwg4dE2ocHHv9xi3Tx8tXVBOkYrGYNXNwVra2kgtv8s1bFk1OkdXfR+TydyRux0a/OEiye497Rb3qwjMnICoS4O9DDnmhp6hrp1YeQUF+HC9PGYlhGOh0pfaft+3VfbJy0+NB2/HbwZICbbF9QN/OwuimjbnLV2wsAgCQSET4R0vekE8cN9TTw4P/eIWp15dRO/84rHv/gy+1GZk5ddaB7tt/VD9xbF8ZjlnYVVa0HYLVIs7UCX08J43rJyvQ6ux6g4miaZrmcEhMLOLjnjIxgWMU5ti+0pCZrbc6MwTfu3ffeutupql5lC970B9tg9goH35s9Az+u7PH27WFejuGYeDlKSRkEgHhmAzckZcYHDyWqP/6280uA3iUSiUxsF8nMdAWkEs5ZMeEELJjmybCt98YJ0/LyLPqSgyUyWyjBHwOJpMKybAQFRcHtvZxOH3umsGZN09IcADjSo6pSExSUrI56Va6qUNC42r2IauNples+aHw4sVLToVLVCRLpDFLLp/bt29b79zLNDeL9GFfMdI2aB7lI2j+4auCuW9PtBcWORs/d8wpGBw4eln/7aYfXI5fi/gY1vgFTY7WZfyCUqkk2KLagbZDm/hAjzbxgW70+QlnL6UYKgZ+RkdF8mQSIcFU7xooCwzu16Lmun0MB1dR7P8Y4RmuEYP09GxLxV1rRkaGLTU9z8IkIAAoiG/ehB8QEEDWJj1/TXgmBYS3XEYsWzxLPv6lQZ7lMQsAjupxZ88nlt25+8hy70HlQfv2u506AIA/D502LHrvVW9tkc6enZ1n37h+qW9ZmYn689Cp0pxcrY3AcSwsNICb0DpGMGHcYM8Xh/eVznt/Vd4Xa3+sU6bEv89fMCXfyTDFRKrcj86mbUDigPkoBCQoqv7MXGm+s1httDMBUVBQYL90JdnYPNqfNR3Gk3YtIBOThExcIfqb1b30CXce5JvfnPN+HlNW2vHjRkkiGvtVnmRoK/C5gIeHyXkA8iq/YG9fW2y0f7WuelSpVCrFfVXMBuqs7EJrZmb1XEMAAEajkf5y3eaic+ebVQv202qL7WvXfev02eBwOJi/WsW4gtSVGKmk5Oo1IMrJy8uzX7l629isqZrVyOqABqAt4CkhCU9J7cbv9v0805tzFueaTK53z2EhgSzR8xhkZOa4jF8IDg4k1T5ejDEUDmq+ga8aU+JODYjaxykQ4GphEd64kSORoSvB5MSF12w207fvPLR0aN2IUdvQKNSX17NHV4/vNm+pswqciWdOQPiqFMTpYz8GhYU+SQ+Qk1NgXfHF99oN320vcVV8prDYkeaBoijoO2hq5t0b+0Pv3U83j5nwTtbxk9XrPvB4XOx/YweJF81/RbH6s7k+bVrFCMZPnZ9T26C53Nxc++59x/TNIscLMDcmu5pisVhdRtN+/c2W4n6924vVKo/6zWTphOw8g23228ty799/4PIiJRIJPnJ4X/fqP7gLRsBvu0/qkpKq67x9fHyIAH9mfbkmm7newPbtv+m3b/+tRlX+HKtkZsGUmVXgtAZERdZ+/X1x755txL4KQYO/r1k5BuusOR/kpaSkuBwcR/wCy+ofI+DaNdfxCwmt4/k4zhxDUSswApJv3a20IwuPCGPNg1ZbinR6+81bzpP1sSUydOXCe+LkGcPL4/t5Mu14MNoKQ4f0E2/58RenLsj1xTMnIDasXexTLhx0JaX2Zcu/Kfjy65+LTW64A5ZToC22j58yX7P/4F8GV4Zqs9lCf/vdjpLde48bdu/4Sj1qZD9pdFRj3qkzl8uKdSV2m81Oa7XF9r/PXzddvupeIrGvN2wu7t+niyi+mVpQf5GVDqwudhAAAFevXrX8vvt4yWtTh8gbQjiVk6c12d6e93nugUOHGaOmBw8eKIyLCRGwZQGtCZeuPjS+t/AjrbPxjIxswmVTMWRm5TlV0dUFPz8f0hEI5vo6NbmFrLl8EhMTzbv2nCqZPnmgV0OOX06+0fb2/E9zDx85xjh+7uj0KQqnmVRnMc3Ya0DUBorG4UKFmBI+n4+xCrM6kJmldRk7wZbI0JULb+LVG+bcfJ1N5c20IKAhvlkYPzQ0lOMsiLG+eKa8mFq1iOYN6NtZDABw63aKKabV0Eefrf6uqCbCoZx9B065FA4VycvX2nsOmJR5OfGmsVFYEJdDkhDRJJQ3e+Z47zUr5vteOvtryL7f16uFQgGrbUGj0diXfPhFfp7WXO9vhsVqdykgaJqGDz9aUXj01A19TYK+3AeDRxkllmmvLc7+eev2aikuKsLn87FJ40fICKz+hMOD1CLLrDlLc11FErdNiGfOVooRcPPW3XotUg8A0CahBY/LYSiYDphbuXwoioIlH36qPX46ucHGLyWt2DL11fc1W7ex10KPCG/MlXsyxy9kaApsaWnVC+AAOIL0ggL8GmQ3m5+vs6akPMlM7OvrS6jZorXrQHa21uYsCaU7iQxdufCmp6fbUtPzWJ8LXx8pZ9DAPvUaN1WVZ0pAfLhopgLDMEhLz7Z26T0hIz2jevbLhkCvN1LDRs/KKtXrqdffWpY/fMwsjX+jbg82bNxeSNM09O/TSbx+zSKVO+fau29/2eJl6/PzCy02Vv/2GmC12miLxfUzlZeXZ39j9sLcv/6+b6hNplRXUDQJx07f1g8eMTVz1252r4oe3bsK2rYMr6csuTjcf1RonjTtHc25c67LtEaEM6sYaBqHiy4imetCXGw0q+fU5cQkt9rNzc21vzF7Ye6ZC/fLal5YyTV2moCjp27qB4+Ymrl3359u5ctqk8Aev5CTq2WsAeHrw6x6qy0ZmoJKqT2CgwM5KpYEjbUHg5TUdKcLC3cyB2e4cOE1Go303fuPLOzxL1bo27urmM9nz9dVW55qAcHhkFiXjq0FSxa8Jj9/amtgrx7tRQAAr7yxJDu/oHLEo1Ihb9DAkfQMje2HH3cXx0SFcwEASkr01PSZS/JefvV9jd1uhzEj+8n8fNmDV2iahg3fbNS9MefjnJv38xlLW7oNRkKp3kixqUhu375tHTfh1ewdu87qysw4VScBhXHg7kOted7idblDR0zU3LiR5Fb+mri4GL4jaW3dHj2bnaD3Hr5S8sKwl7NOnz7ncpLl8/mYny/zSi5fW2K796B6tbS64EjSxhxpbLHSVKKbAgIA4ObNm9aXxr+m+W3vhXoZvzspBaa5C9fmDB05SZOcXN012BVNI9jjFzIyXccv+Pn5EQHq+ks/URFNToG1onNE24R4PnMlvzqAkU6LPAEABAYGkH5MjhEYAbdu33O5az3114Uyd+aG5jGh/KioqAbbIT2VNoiw0ADOO29O9nxxRB/p0ePnDV9v/LXo01WbCrMfnWqcnp5t+fNQ5cygc96YKMsr0Nq3/LyHUb1RE9q1ieMnXrtlrqi++n3PUX1AgA9Z0eaw6fvfS4ID1ZwFc6cr2rWJF+z84xDrFp2iKNi6bbv+0uVE8xuvT5X17tle1ChEycNoG7jrhggYAQajnbp9N8N84NAp/dfffO+Wl1V6erpt/KRXcoYOHVQ64+WXvGKbhfJFHgTulj4YI6HMZKeSb6WZ9v15XL/5h60lmZk1S4Pw6Weri27fvmeZPGmMtHV8E4GXzIMEd68bI8BkpqlLVx8Yf976R8mWH7eyFotXqVQESXKx1MwSlxNgemZ+vefg8fLyIvg8Ps7UrrZQb69pkfm0tDTb+IkzcoYOeUE/fepLnrHRIXyhwP3xMxjt1M3baabde4+U/vDjr6VZWc49t1zB4/EwkVjEeF0YhsH16649syIjGnPzCkrtFGWvVw0AhmGOwNAKBPgHcNIyiy31HSEN4MiC7KzIE4CjymJmTpGNpiinDWM4jl285NpGc+HiFdPdlBwzj6VWOI4TWO9e3YRXrlxpkIJBGADcbogT15b570z1XPDudIUmO882cep8zelzT4qdJ13aFXzhcpJxyoyFueV/W/7Bm95NGgVzh45+Q8N03qYRYdxbd1wHJFVl5LA+oj49OwgnTV/wuC0Oh8R8fZREVdUWn8/DNA9PNHp11rKcrdv310hIYRgGoaGhnO7dOgu6dW0vDAlWc2QSISERCwgulwSapqHMaKFNJjNlMlnp4pIye5Ymx3bz1j3zseOny27evGUpKSmp1RJJKpXiLVu24A1+oa+4adPGXIWXhJRIBLiAz8M5HAKzWm10qd5IFevK7Plane3ylWumw0dOGq5du2GpawF5Ho+HNWvWjNu+XSt+61bxgtAQNVco4OF8Pgfj8/m40IOL2e0UGMrMVJnRROXkFtmSku+a9x84Zjh37m8jU1nRiojFYpwtLQFN0/SjR4/qdbISCASYO4kXU1NTrbVNZV0+fkMG9RNHRjTiKb2lhFjMdzp+eflFtstXrpsOHj5hSEpKrvX4cblczN/fn/W6dDodxRQDIRKJGkR7UVJSQlW0RQUFBZEEUfd0Oa7QaDQ2Z+7Avr6+hEAgYLzGvLw8e8WkjhXh8XiYWq12awHfEM9vOU+NgMBxHL7/9iOfcaMHyk6fvWIYOPzVLJ2u8kP8xWfzFGKxEC+ftNu3jeOfOrwlqF3XMakXLzvf6pUf9/Kk4bIJL7+X425/FN5eRE7qqcbtuo5NvXCJvR7uX0e2BEyesTDn/gPnSdfcRSwW456enrhIJMJJkgSKosBkMtFms5k2mUx0cXExqyqpNpAkCQqFgvDw8MD5fD5GkiRYrVYwGAxUcXEx9U9Ubn03+xihUIgJhUKcx+NhAoEA4/F4GEVRYDQaaYPBQGm1WntD575/liFJEpRKJSEQCJyOH1s1PwTCGU+NimnzNx/6jBs9UPbwUYal9wtTM52luFj55ZaiPTu+9C///OHiNxQYBtiN5HuMO4OxLw6QDOzXRczhkLlWq82tWU7h7UngOA4jhvYWuRIQ3bu2EVy8nGQuLTVQn3+xubCuwgEAoLS0lKrr6rw22Gw2+CetQv2WvnITg8FAGwyG/6Tt5wGbzQb/qKvQPUTUG0+FkXrc6IHi/40ZJAMA2PnH4RJX+Y/S0rNs7y3+Il/uJSV4PC7WLqG5h8Vio5jcXKVSMT5mVH+pl6eMGDfmBbdTWs+ZNdETACC2WbjLFAcXLl03/7z5U9/msRG8PfuqJ4hDIBCIZ5mnQkAMH9Lr8cSdl1fIqEfYd+CUQVuoswsFAozL5WB8PheXe0ld6phnvz7eUypx+GwveHeaN4fDbPQBABg2uJdo7KgBMgCAvALX/dHrjdSGTb8WHd2/KTAsNKDBo5QRCATi3+SpEBDe8id55WUsBUTKKSzWUQ9SHEFGY0c53xnIvaTEazNGe5V/Dgn2506ZOLxSQi6ZTIKHBvtzvOUyIi42krdy+TuKrT98puZyOZjJZKG+XPczo3fQoSPnysQiIf7eO9O8mI5DIBCIZ42nQkCYrZbHOvcW8dFu5zmf9/7qPIqiYNF70xXt2sRV+91HS96Ue3nKKgmcD95/XeEtf/I3g6GM7tO7o8fe39arz534JejNmePlxboS+2+7jpS06zom7fxF1wVPABzFiAiCgLjmkf9eHUAEAoH4F3gqBERy8oPHHkhdO7UWMqmMKrLzj0P6YaNnZZSWltmP7t8U2LN7u8e53GNjwrkT/zfEs+pv5F4y8vPlbyvKP1utNnrdhq26tl1Gpwu84u5hHlF3lIEdHwwfM0tzlcGXu5wJ44ZICALHOCS76gqBQCCeJZ4KAbFizQ9FupJSOwAAn8/F331rSrWJ3RW79h4zNInp9+jVNz/IiWgS8tgOsG7VQh9X9oZxo1+Qde2cUOd0D0qFnFjw7jRvAICUh+w5dRAIBOJZ4qkQEGnpWbaxE9/JMpsdofmzZ473fmnUALc9jiwWK715yx8lX67/WQcAMGn8UEm7tnEuK0PhOA5rVy1QuWOwdoVEIsJ37/hKrfZTcgAAtv92qN6iuBEIBOJpgACA1/7rTgAA3H+QZr1y9aZxYP+uIgGfjw8e2F3C5/PoE6cuGmsSoCUUCrBd2770F4uFjGoqhbcnqdPpbX9fcB3u7oqopo24+39b598iPkoAALBn3/GS+Yu/0Nb0PAgEAvE081TsIMo5cPhMWdO4gY+2/3ZQZ7dT9Lw5LyuuX/g9uKJtgY05syZ6+voqODk5BaxBa++8NclbJHIeDs/jcTGBwJElkSRJUCrkRL/eHT2+/2aZ6srZHSExzcL5ZrOFXrxsbd6wMW8ypvlAIBCIZ5GnJtVGVdR+SnL8S4PFHdu38IhoEsIrKi6xnzx1sSzx2i3TvoN/GYqLq+cf4vG4WNrdI2EqpTc5cdqCrM0bPlSztTN3wcrcirWry0loFcMfNrinKDqqCS/Q34cjFosIAACDocz+MDXTevLURcOPW/eW5uY5r0GAQCAQzzr/moCQe0mJMaMGitu1jhU0bx7JF3oIcKlUhJeUGKhbtx+YbyTdM/2x95j+3Hn2vPxcLgdzVvpz4v+GSL77+kO/23cemkaOm61JurQrlO1cidduGVu0G5FW2+tCIBCI55UGz8UUGOBHfrDoNe8RQ/pIBAJeNXWORCwi/NUqTq8e7UVz3pzofe3GHePCJWsK9h045TJ1hau60C/06yoCANj++8ESH5W3W66ycbGRgrDQAE7Kw4xa51FSKb2Jvr07esRGN+GHh4dy7XY7lJUZqXv3Uy0HDp8xnL943VTbjJ0IBALxX9GgO4hJ44dKVn7yjqo81UVN2Lr9z+LJMxbmusrL5IxCzbnGnjIp0bLdyEd+fgpyz861AW71c/oCzeYtf5TUtI8JrWL4789/Rd67R3sRQeAuPaLS0jWWT1d9p/32ux0l7iYLRCAQiP+aBjNSL1nwmnzT+g/8aiMcAABGj+wnO3fi50B3g+YkEhHuKZMSdjtFX71x25ydXeB2bujgQHWN8igJBHzsy5XvKc4e/ym4X++OYibhAAAQFOjHXbtqge/Vv38LahoRxq1JWwgEAvFf0SAqptdnjJUunDddUfXvefla289b9+mOHD9nyMjKtYmEHnh0VGPuwL6dRX17dxJC+yQsAAAgAElEQVRXjUtoHhMhOLJ/k3+nnuMy9Hojo44mMMBRnMVqtQJN03DzzgNLSaneLvnHuMyEQMBzOx7CV6UgDu7ZEBDDkOXVFVFNG/Ev/LUtePT4OVlMKjTE84tIADifC5jVDrRO71b5wFohEQLOJQEzWYDWGxuunXLwf5aaDa1JJXEAG9LW/mvUu4CIjmrM/XTZWz4YVnnO3fTD70VvvrM8v7TUUGl4z1+8btq4eWdJVNNG3E3rP/BJaBVTyaU1LjZS8P03H/sMHzOL0ZW03C7B5/Ow4EA/8lFalu3HX/bqXp02mjWJnlZb7JYnkr9aRf51ZEtgSLC/012AwWCkrly9ZSwu1tmFIg88tlk4v2IiQgAAkcgD3/7TKvXA4a9kHDtx3uhOuw1BoArIuWPAq2MMePjKgeMlAQLDAP6ZUOyFpWC/mwbmSZ9AboEO7HIJEIkbIbjiOWx2oHu8CemPchwV7GPCgLvnY/DHKhRL3noMdHM3QEHV9j+eCvIxPUBW/vngBSidtgLyqh7XNAi4vy4GP1fXYaOA1urAfiYJyjbth5KMPLB9NQsUvVuDW4GWm/ZB0fJfoJoXWzl/fQkBQSqoNN6z10Lub6dADwAg5AN2ei0EysVP3qU76WDuPQcyyz8PaAfCaS+ALCESBArZk+PsFMCDTDCfToKyz7ZC4b0MsAIAnP4KAny8wK1d7YwVkH30ChgxDGBcbxCP7w3S+CYgkIng8cLIZgf6ViqYT1wFw6dboVBT4KgZERUM3G2L2O/t6RuOe5uZD4935UoZEDOHg6xnSxA29geep9jRntkKtL4MqIx8sAyeD1llZqD//AT8lZ5PrnvvOSh9bbVjrPlcwPYuB3UTf+ABAOw4Cbo56xzPC4cEbMoAkAztBOLoEOArZEASOICdcrSRrQXbos2Qv/0E6Cf3B8ncseBd3sblO2AcvRSynV3X60NBOnM4yNnubZeZkJ5VAP+vq1TVu4D4/OO3FXx+5RX58hUb8+ctXMUYSHbz1gNLl94TMvbuXKvu0a2tqOJ3wwb3lMyYOsqw/pttOle/z8jMsVmtNprDIbEpk4ZL31v0hXb+otUFvXu0FzYKC+QxtX3xSjKr55RIJMD3/77e35lwyMzKtX78+bcFGzfvLKloQCdJEkYM7S1e/sFsZWCAz+MXXiDg4b/+uMK/WYvBD7Nz8/91N9nRPUC86R3wFfAcKkabHeizyWDIzAMbjjtWnwopkF3iQPjaUJAu3gyFOA4QqKo+aa18DZRDFoAGwwDWzwafqpOplwSq7eBCfICcNRzkfN4TFeeUAeD1w2EoOZcElcbCgw9YdCg83q1RFMAvx6CYzwUsKhh40aEgAADo3gJEs0eCvN0rkPZQA9ZrD8AI4Fix96kiLHaegsfPUcVJzxl+3sCpet0rXgXV/r/BYLIA/dHL4B3XCCqlbdEZnhTt+WoWKF8dAo8XKVfugvHqAzAJeIC90A7E4YHACw8E3rheIBvxPmTuPQeG5Idgzil09CtYBdyWEU/OX1gC9uNX4XHd82I9UDgOsGsZqAe2c1wnTQOcvgGG26lglsuA6N8GJDFhwI8JA/6EPiDrMRvSL98Fs1BQ+d7aKaC3HgMdnwtYVBDwy78rv7dtZ0DarTSwdIoF/q5lEFAuFGx2oE/fAENqDlg5BGAqLyBC/YA7fRBI530D2hkrIef4aggUeziOf3UIeGkKwPrxz1D000Lw6dECRAAAx66Afv63oAVwCKCjqyCgWYX+JT0E0510MJeZgPKVA8dPDuTMYeC5/QTo5RIgGqmfPHu5heDS6cRbCmSlY4vAdv4mlFU9zmKD//f2wnoVEDHNmnB7dW9X6WU88dcF/fz3Vz8WDt27thG89+5UefOYCIHdTtEXLiUZlyxbW3DpSrLZZDLTL770lubG5V0h5Sksyvl46Szl3v0nDJlZuU5faKPRRJ+/eL2sY/sWwrdmTvC+eu2Oeecfh/QXryQZmQRElibPevrsFcaVPI7jsOPn1b7O1Er7DpwqHTd5brazuAybzQZbt+8v3X/wlOHAH1/7V0z/IfeSEd+uX+ozYOiMLKa2G4J3R4NcUGFy/nAL5C/5HgqdHauUVZ/gKzKoA0h6tYLi8ADgtIsGtwIaV70OyorCAcCholjxCijbzoB0pt/aKaDHfQiPS8ee/goCOjQDIQCA2AOISf1AOnst5MN2KAZwrJKrCogXF0N2XVQhQSrgzB0LnrvPguGVCpN/VXq1Ao+KwuGv62DoPBMyyj+3DIeiC19DCI4D8DiArX8LfA6ch5QZK5/spF4ZAtKKAiItDywj3q+8Mn5lCEjLhQMAwI+HoXj8R0/u0YiuULp9MfgDAEhFQKybDarW06rfZ6sNoOK9PbcOAttGOcZUIgRiYj+QvLsBCra8B+py4QAAMPFj0Px0BKqlmvESO8b48l0wj/kANL9/AP4c0rG7/GAyqDo3B2GvVg7hcOkOlA2aD1kWq2NSXvU6KCoKhx8OQfGECtdUtY26cCMFTIPfAxTs6oR6NVJP/t8waUXVEk3T8Mac5XnlqTI+/uBN+ZF9G4O6dkoQecqkhLfck+zfp5P4zLGfgocN7iUCcNR5WP75t9VUElKJmPhm7VIVU/vrNmwtAnAEzG3/aYX/n7s2qHv3aC9i+s1nq77TstU6/mrle8o+PTtUU1kcPHKmdMiLM7PKhYNSISdmTB0lXbrwNfnoEf1EEomjMHtJiZ7qPejlzHsPUitlh+3fp5O4U/sW/3qa8MLSyqvm98eDMncXNLryLQTtXQ7qDW+B8pUhIPXzBiKvuHoJy4qZTzAM4IvXQbV0MiirfueMzs1B8EJ7kAAApGjAYjI/0Y+3aQoeL/V0TzVUTkGV/pWZG07fXvHa3hoJ3j/MA1+SAMzVNY/oWvladp2uPIlevgtmjfbJSlftDZz4cGDc7TpjaMfK7fx2qnI7f5wCfUWB2CoCPGRuTKwFxZWfkzIT0O2jgR9UYUelLQGbM+EAAFBY+mQs9p0Dw/SVTwQzjgOUC4e76WDu9w5kGUxPVuwVBR4AwBc7nasBK7ZRW/wVQL4+FKQV/0mET1eWif+Ker0JXTsnCCt+vnApqSzpn3rRgwd2F747e7Kiqm0CwBH4tunrpb5eMikOALDx+99KyspM1Qa+b68O4knjh0qqneAftu08oD945EwpAACGYdC3Vwex3Evmcpd08MiZ0jXrfmIsCPTa9DHSGVNHVVslaguL7f+bPC+nXLhMmzJS+vDWobB1qxf6Lpw3Q/HLD5/5p909EjZ6ZH8xgKP63Pgp87Or5pWaMmmErOq5G5ppn0Pu8UTQ2+yOFxLHAZSeQMY3AcGAtiCe+gJ4rZ0Fvim/QNjrQ0Fa9fdlJqD+PP9kUogIAp5MBITBCNSJCuoPZ3w2A5Tlj8CbX0Lu2l2Vdy4fTQWlgAeMTgNvjgDZ0kkg37kU/AZ1gMfPw71MMK/9AxjHsy7sOPlENSXyALx8hbv3LDh1kVZ5Vt6h5zsRtqWGyhOcr7zmu/qKdg0AgLyiyu3YKACDqXI7aiftYBjA7JGOe/v7B+A3oN2Te3s3HczrdkOxosqOsrDE/RrY3+2HklU7KtujtDqwd38TMgp0T87D4wImElRuJ6+w4WptRwYBf80b4Fvxn8qTeef8/4V6ExA4jkN4k+BKq5+jx8899tSZ8fKLns6EQzlSiZgYN/YFCQCAyWSmE6/dcqr2Wf3ZXBVTec8RY2dlHz91nnGSAgDY++fJ0qGj3tAwJQLs1iVBsGL5Oz7Ovtu4eWdRfkGhHQBg9Mj+4vVfvP9/7Z13fMz3H8dft1cul70jkdi7CA0i9qZqtqhRiiotrV0dqrS1SlFKEa1Ve8+YETNEQhBk73HJ5fb+/v44l9wll0hIjJ/P8/HI4yG573bfz+vzeU9PgcC6rpODyJ7x7+Zfvfr0DOEDJof8+Us3rK6tXdsWla4zVV08SYeu6wyk2/XC46CJSOo3F6kTliJz+W7k308s8QFwOaAv/wIeQl7Z78mk5ciRKqxf2t/3Qmy2ndtiXG/YBz0zl5y+CdnRq1D8sAXibItZtK8bWPNGlm+2AYCkbOjmfwLXwaGwp9GAlBxou3+NlCZjkJwlrrmBZMV/KLjzGFbfy/DbkIffhs2ItNIzcHensoOOY6mZfJa46k7R/CLrfTycrc/DZoEm4FqfJ8PGeSgKSMmB/ttP4PphR9OzTcqCttvXSGk6Dsk5BTCk5Vrv5+YAJrMKo0j0Y1itonMKoSvtCNZoQZUWHn/PmkvqvRwDhd8wPLX8Scos34fxLlFtAuHu6sxgs1lWChD/OKm4R0JA7ef3bG5YP6DYcZSZlWvzRRHaCRg7ti71pNNtX7pcrjJ26zMh/cuZv2SnpWeX+U9OTsnQTpz6Y+aAIV9kVJSEF+Dvw9qzfaV36Xsys2vvCSlgEsZlS2a6lSd+DAadtuK3OcWmsd17T1rNNv1qebFepuz4i9CvHQR+7mBqtKCi4qE5fs0UpTJrPfInLLW28zLooBmpss669DzoF2xGnvn3bDF0v1UQDcRlg7bwUxSHPoc2h6DoBOpmHkAdZ5H1yz9jKJy9XcofEA5FQLHk35Jz+7mDPbYPROYVUU1hNAKTliPbfB6DEdSs9SXXUZpTN62Fo2srWK2wG/uD7epYYq7Jyocu+gmq3FckPMr6PD2DrM/TIwh8y9cl6hFUknJMM/svQf7rjpJ7qu0J9vAusNc9c9hGxUOTmlMyeIrswPhsQNlVJmASpqrei5nTt6zNVtOHwtHWK/Yy5zCj0YFKzYHe8oeE0pqoNlWm2RivDcaS97WgsOi5M7siqaxS/y1tg5rxly2Z6fLN3KVlfBWAyfex5s/tkrXrd0jeb9Oc27plYw5oNNqliJvK2HuPn/sCerq7Mk4e+cunPPOUXm+g4h4kaAGgdcvGnNIO9dI0qFebE+Dvw0pMTteVLi/OZDJotf19mI+fJL+yGUvLuuAcWgzf+FSo45KhKZDCwGCA5iYCo31T68Fly3EUKNSg+DY8JWsPQDKsM4QdmkIwfxPyKoq3nzcSTr5upsHw+gMon2ZYD4TtGoMf4GWKLLHjg75sClxG/FTWKWnmh60QNw8EZ8AzE9PIbnBQqkFNXIacqjyLqhIVD83aAyiYPhTOW09CcvcJNCFNYdOPtO8S5KdvQmYOue3dFsLTy+FzOQZKVwcwPuoKEePZe6PTg/pyDXJ0LxA5s/YAioZ2gb05mmpifzi5OIBx9wk0Pq5gjuxeMoDLlDB+tbbiZ7RgM8RNA8E1+wE+6wdHUKAmLkcuRQETliLryBL4mAMN1n4Fz8EdIXyUCg2DDprIDvT6vuA8TIVm1KLy/w8rYuafyAtuDH5tT9N3YkgoRLFbwIm8D6VOD8pBCIavK1heLmDWG4mk0vsHeIL91zcmv5glK/eWncQ0qAXO1rko49/8KQxicwj3u0q1CURefqHRYDBSllnFDerVLl4RnDwTIW/TummF5pTjJy8Vm19q+/tUOOh+/eUYl+zsfMOyVVvKnbVSFIVrN+6qq9LzITDAl3Xi0AafenX8y3UWUhQFs+/B0bFymd5Ojg70xOR0FBWVFUGD4dVGuh64DPmQTrAP8AS7kX/ZwU2lgfFeItRbT6LoryMmuztFAWaTkvKZPZuigEnLkLNxFtzDTpns8EoNKEvTk1oDo7M9GJ/2hYNUAYNEDmPv2UgvPYPt/B54hxabIm0A02DavA4K9MaS8wKA7tnsnaKAUT8j+/JasAKeDSLDO8M+txD6BX9DbLm9WGr9klehvQjkShjN5zfPKudtRH7H5uB/u9FkT1frrO/ZLJRGIzBgPjK/GgyHcX0gqucLbo8g2Jmds4DJhn8lFopF/0AcFY8yLW5VauvrL7Rh85epYAydirR5o+A4tDNEgV5gDwmFaEhoyTbZBdCfuwP5wq0QP0k3rQAMButnq9FZPdusiDVg+XuYRH14F4iyxDD8sBXis1FQNh6LpHmj4BTaHPw63uB0bQW7rs/CVQ1GUOl50J+5VTYyTqO3flYype1JRZYYhmbjkDzrIzj2eR92zeuYwm4tw3LzJNDvuWD63snVMFo+JzYbtMGdUMZfuescZHKV9bZ8Lmj925cNjlh7AJJ3XSCqtRbT43snatcN9CseWKNjHqpaBg9JAQCRSEiPuXHA36+Wl80ks6PHL0gHDJ2aCZhKfafEnwt8XgkLiqKwdOXm/Hnfr8qvSlMhW7BYTNonIwYIK1s7ysM/9ElObr7B18eDmRIfXqci/4pGo6Vca3V4IpMpjM2a1mPH3DhoVWXWxafdE3HB81dYNYGTEHRHezDYDMAIQKqAMbsAhqo8Th4HNJXm3YoZf5F7FnBB83ED00kIhkINY4EUxuflYbwIDkLQPR3BcBSBIZXDmFcEQ04NOnnpdMDZHgyRAPR8KQzlma9eFvN3VaYw3dNLvvKESlCtUUznL9ywsoW+17wh78MB3QQAUFQkM/bo/1na/bgnZWbzh46ck44YN6t4Kfr9vClOzxMHwBSpNOebCS4nD//l3axpvSrXOOLxuLS+vTvy/1rzo1tW0qXAqtSO6tKpLR8wJeiFn79WoVP8wOHwInMGecf2ra2SqpRKtbFQInttPSUKZDAmZED3MBW6+FTossRVf/HeNXEAXuyeFWpQ8anQXYuDOjYB2poQBwCQyGB8mArd1XtQ30+CtibFATCtlPIkMDzNgK6mxAEo+a7mSog4vCqqdQXRrGk9dvS1/QGWDuSCQomhS+9PU2Ji47WAyanbvWs7flDLxlydTk+dOXdVGR3zsHhp/eGAboK9O1b6MhhVizIzGAw4f/GGfPaCFXl3Yx6VWarb29vRWzZvxGnZoiGnWdN6nEYN63CbNq7LLZ31XVnOX7ou79p7fDoA+Pp4MK+c2+FnmS1t5tHjJE2HLiNTzSuEW1f2+LV+1qoUAC5G3FJ07jk2rfR+BAKB8Lqp9nLfxw9u8O7TM8TKnpebJ9Z/Mn5e5pnwyDLp7JZMGDfEfs2K+Z4vMmhHRN5WLF66UXz67BUljUZDcNsW3C6hbfjB77/Ha9wwkOPr48EuL/LpRaAoCn0/nJx68swVJWBKkvv5h2nOfXqFCl1dHJmZWbm6A4fDpQuX/FkglcqNADD5s49E61d/52l5nJ+WrM/74ee1pJ91JXEQgi5XwPiuRplw2KCJ+KBzOaAVSmGUvYJCfIR3l2oXCF8fD2bsrYO1HUT2VksAiqKw7+CZonUbdkouXYkqjiVnsZi0nt3a87/+aoxj545tK8x6toVUJjfMnLc8Z9OWvVJPd1fGrBnjnIYM6mnv61N2Nl/dZGXl6Tr2GJ36NCH1uRFIH/TvLNi9bYWPpfjp9QaqQYu+iS/TrOj/nR5B4E/oB1FQA/B83cA2R/1odKAKpdAfuw75Z0uR4+MK5pV1qGW5b4NRSFJrTaagbz+B02f9S4oDnrgG+ZTfyxYH/H0qXAd1LHFunrgOmWXpCzMfd4Pwl4klYbv3E6HpNxcZyz6Hy7DO1mGfpY8RsRa+tdxMjvW+c5B2P6ni0FZXBzDmjoBj32AI6/iAzaCXhHYq1TBGP4Fqz0XINhxGkblUxfbv4NGhaUnpk+W7IF57EEU3/0Ity8J5435B1oVo2Mw5it0K/+dlFJ+8DvnnK5F7chm8G/nZjubSGUAVSKGPT4N2VzikJ66XrXtEeDOp9uSTtPRs/cQvfszaGbbMm8lkFH+RaTQahg7qKRo6qKcoN0+sT0nN0gn4PJpfLS926QSzypKRmavrO2hyWtyDBO3ihV85fzXlE+cXPdaL4Onpyrp85p9a4z9fkGVeSZRGIODRvp/3ufM3X41zLu1XOXQ0XErEoXw2zoTbZ/1Lkuay8qG7/gCqPAn0zg5guDuC+WEIhIu2QcxkgFa6UCDD4pvgIgLD8nM3x7Lf/Ya1wJryIZzYzJIB+LP+cNpyAkW3HllHGIkEoFser1BmsvM724NRurjf5A/gdOcJ1JuOmiJuvJxLCgBynhPH39gf7HOrUMuclS2Rw3D6FuR5hdC3qAtuh6YQtH/281EX2HedgTSVBpSXM5iW12euneTrBraHU8m9C2wkQZrxcwfLXlCSdHchGnLLjGcAeJxmEjdPJ+uihtfioEzIhNZFBEanFrAL9AI7qAH4o7rD4bedyLdV4Zfw5lEj2Yl7D5yWCwT8zL//XOhty5fg5urMdHN1fqlz5+UX6EO6jkpRq7XUpdNhtSwL4b1KPD1dWccPbqh15eodxf5DZ2X34h5r1Got5e3lxuzcsQ1/2JBeImcnhzIPQVIkNUyf9Wu5SVbvOoNDYWcpDik50DYdg+TSJhU6HeCxQXN3evnv8u/T4GYpDoBJZFZ/Cfd2UyouIvg8Vk2Fx40HJud0VfbbMBPuliU7hnyP9HO3S2b8+xbBc3BH04oluDH40wbBYemu8hMWX4afwiC+eNf2aqM0206VhEiP6w37LXNLyoqP7wsHIhBvBzWWvh7270GZRCJN27zhJy8nx7ID5Mug1eqoYSO/yZDJFdTNiP/8yuvP8Kqg0WgIad9KENK+leD5WwM6nZ4aN3FBZkam7WxxAjAk1Doufc95SG3Z242mOkM2Y1qmDYKDOW+ieR3b5g8zPduAb05oi0+Fxs8DbC7bJBbBjcH/uCvsdp2ruM5UaWRKGIV80wydzwV99/fwDpqE5Mru7yQEvV3jksTFAikMluIAAKduQGEWCADo1RaCmhKIIZ1g18qimGB8GnTHrtouM2KJuFTuxqtoYESoHmpMIADg0NFziuiYR0nb/l7iGdqhdaUGz8rw1997CiKv31FfOBVmsz+DTqenTpy6LDsVHqmIi3usodFoqFPHj92rewdBv96dhDwe57VVapTJFcYJn3+feejoOdJRrgJK95EoPchUhl8mlc2OtQWdbioiCJiSxKauQnaf92E3Y1hJU5lfJ8H9YISpB0Rlz7/xKAq6t4Zds0CTODX0B2fDzMpdEwB4OIFpGVchkZd9BpJSXelcRDX3Tn/xoXWTnSNXIC1PIIIagOvtAqarAxhDO5UImEoD4/xN5ZcnIbxZ1KhAAEBKaoa+U48xaf37dBLM/nq8U7v3WwheJpooX1yo/27RGvHUSSNE7YPfKyM6V67eUYyb9G12acfx5cjb6i3bDkj9annnbd7wk0fXTu9X2SH+spy/dF3++ZeLcl5lWY23lSyxdbE0c5mOqhAwHE+Vzwb0hePgPGmA7SKAUz6AyLIya/htqG4+gmZkd4jMvopa7mDNGQHH8vpm2EKjBTX4O2Tc2gh/c4e3Ud3hUNmaUZmlCh+WrqQKmHwelr/nFtZc5u+HC5B2La6kmGNFYvkwBZoJfeHYwM+04qAoYPZ6ZG89CdmLiD3h9fDKZtJHT1xUhHT7JK1uk94JM+cuyz589Lw0N09c5S/zjl3HivR6PTVn5niX0p8dOXZeGtpjTFpFUUUpqRn6XgMmpe/ec6Lc7nTViVKpNh4+el7aoeuo5K69x6cTcagcBy5bm3OGdoK9l4vtEsxmU1BpciWmDOKcAhjKS2wT8kBfMKYkGql7EOyKTqBu2l4EWjbFAYBvhsOlvGsoj6cZ0H2yGJkGi3k+k1G5AnMSGYy340tMSkI+GB2bW5vKurS0btJ08kbVzGBVQSKD0fw8cwpgqKintlwFqv88pJud989KiTs72ZM+C28TNb6CKE1icrpuxR9hkhV/hEkAoFGDQHan0Da8DsEteUGtmvADA3zZFZWt2Lr9YFH/3p0E7m4uVteekJimHT56ZpbxWUeSju1bcefOmugc3LYZn8fl0mPvP1b9vuafwl17jsv0ej3GTvo2u1HDQI6tLnEvilaro1LTsnQJSWma2Hvxmus3Y1Unz0QoK6oaS7DNkUgowk6icGxvOAKmqKP7YQg4GwV5ngR6kZ0piqlZILjDf0RG6TLUleW7MXAyO4Gv3DO1zbT8vH2TkoJxQj7ov02Gq2XXtcpw7CoUS3cib96oEiGqLDPWIufkUtQyRxsdXgLfHWdRJJHDENQAPMu6TlfvQ/nnIVRp4jNtEBwHd4TVajoxE7pF/5RdKc0bBecJ/a2f84MkaJZst+3zeJoB3eglyDy0GD4MOmieLmCdXQnf0GlITcl5t2scvS28coEozYNHCdoHjxK0f/61qwgA3N1cGEMH9bAbPqS3fYd2La1MSDm5+fqY2HjtzOmfljEVLPhxda5araEAYPTIAcItG362iqAKatWEvzNsKb9Z03p58777XazRaKmZ85fnnjm6qVbpY1WGx0+TNVev3VU+fJSgjX+apH3wMFGbkJimM75ML0uCFeN+Rc6hK5BP6AeH9xuB5yIC0zLHQCKH4Uk6tDcfQu0iAiO7lFnKctYukcNg+XmBFHpnezAGtIcwNQc6qQKGPrOQUdoR3q0VeJvnlETgdGgKfl0fsORKGC2PZ27SI5bCYC6HbZ49A8C3f0Pc0A+clvWs+1ebC+SVR0Qs1G0mIfn7cXDu3AICN0cwLduY6g2gHiRDszMcRav3QWI2++RJrO+36FlRvOwC6GBRvr1ZADjNAqy72N1NMJmRssTQKy0aDT3bzmpbLgt0AIVZBdA55pSsrqTPznfsKhSLtiHv84Fw0mhB0QBa2Hx4fjAfGVIFcVa/6VR7olx1EtqhNW/l0jluLVs04gHAhcs3FV16jUu7e32/f/NmDYpn/gWFEoOHf+hTnU5P1avrz4q5cSCgvGxso9GIzj3HJl+OvK0GgAd3jvo3bBBQqVVEQaHEsO3fw5K1G3ZKEpPTianoFcOkm5zXNLppAHwXtdjVAQxXERgcDmgSKQxZBTBUxXFOIFSFN9oeeOlKlKpd55GpR09clAFAYlK6FgBKm5di7sWrdDo9BQATxg4WVVSqg06nY+KE4cUZtZHXoysV1/3vrqMSv/rdEr6euzSPiMPrQW8s8Su8i+IAmITxQQq00Y+hScqGnogDoSxwOhMAABSbSURBVCZ5owUCMJXKHjJieubFiFsKo8FAAQCHa93lLSs7v9ieWdvf+7nRLnUDaxWHxqamZlY42Ov1BmrClO8yR4+fmy2Xq97RYYlAILyLvPECAZicvwOGfJFxIypWDQBisXXvBB6nJK8hP1/y3BC6Qom0eJvyWoqazzti7KyMzWEHbDalJxAIhP9n3gqBAACZTGE0D9TpmTlWs/5GjQKLHWcHj557bpjfmbORxck9zZvWt9k5jqIoTP16cdbeA6drLGyQQCAQ3mTeGoGwJOJKlFVhvLqBfpymTUwNg86ERypPh0fKbO8JPIxP1KzbaIqYEgoF9JAOtstjrFgVlr9py16yciAQCO8sb6VAHLPoXQ2YHM8/zJ9SnDg3dOSMrENHzpUZ3K/fjFX27P9ZmkajNZWAnj3RqXRZcgDYf+isdPaCFaSYGIFAeKd5o8NcK+LG5d212rRuapVFOmHKd5mW/oLmzeqzO4W04dNpNNyOjlObQ1sBoG/vjvxD/631tSxJDgA3bsUqO/Ucm2bOqSAQCIR3lbdWIAZ90F2wf9cqX8u/GQxGasac33LW/LldUtG+E8cPs1+9bJ4Hl8u2WkE9TUjVBnf6OCVf/HxHN4FAIPy/wwAw9XVfxIvwMD5R17xJfXbDBgHFTmY6nUbr3SPErkvo+zyJRGpITE7XG56l0woEPNqAvl3sNq1b6D5l4kfOpVcOefkF+q59Pk1Nz8ghJQAIBAIBb/EKAgCcnUSMG5f/8wsM8LXZD0Kn01OZWXl6Go0GTw8XJovFtBnSKpMrjD37T0y9duOu2tbnBAKB8C7yVgsEAHh5ujLOndxaq0G92jbDVZ9HvrhQ32/QlPQbt2KJOBAIBIIFb2UUkyWZWXmG9p1GprxI+e7Ia9GKtiEfpRBxIBAIhLK89SsIS/r27sifPWOCc0j7loKKSoY/TUjVrlm/s2DN+u0SiiLBSgQCgWCL/yuBMNO4UR12z67t+UGtmvC8vNyZdDoNRVK58V7cY/XFy7dUZ8IjlUQYCAQCoWL+LwWCQCAQCC/PW++DIBAIBELNQASCQCAQCDYhAkEgEAgEmxCBIBAIBIJNiEAQCIQ3CjqdjqmTR4jSn14I/H7e506v+3reZYhAEAiEN4aO7Vtxo6/t81+2ZJb79Zt3lfNnT3Rt1rSezVI6hJqHCASBQHhl0Ol0TJsyyiE+9njtiPB/fQMDfFmAqa5a2KbFHhdOh/nniQv1zdoMTBoyYkbW1Rt3lX//ucijosRXQs1B8iAIBMIrwcvTlbF/1x/e77dpVtzH5dbt+8p2nUemXjwd5htY25cza/6ynO27jxV3hKxfz5919/qBgBlzlmZv2LS7yuV03hZYLCatYYMAlp1AQJcrFMaU1Cx9UZHM+LqviwgEgUB4JaxaOtf1q6mfOJf++6Jf1ufNmvGpy8hxc9IPHD6rKP152KbFHj27dhB4BoQmvJorfTVwuRzap2MG2Y8c1lfUonlDLp/PLbboUBSF+CfJmlOnI+S/r/23MDUt87W0ISAmJgKB8EowGI0269vMnz3Rlcvl0C5fuWVVNNPN1ZmxM2yZx6iP+jscPBJebp/5t5HPPh1qn/70fOC63xd4tgt+j28pDgBAo9HQoF5tzvRpo52f3j8Z+Mfy+a48HveV29mIQBAIhFfCr8v/LpTK5GW6NTIYprbwX0weIWIymaDRaJgy6WPRo5ijAUGtmvB6fTApZcr0Rbmv/IJrABaLSdv9z3LPjWt/9HJ2cmBWdp9pU0Y6376619/Xx6NS+1QXxMREIBBqHG8vN6a3lzujS2hb/i+LZriXt51CoTJm5+Trvb3cWKvW/Zv/48/rCjQabbmVNd1cnRnbt/zqWb9eQJl+MAuXrMvbsu2AdNjgXnbLlsyyec6s7FzdpGk/Zj94mKDbuHahW4d2LQVsNttqpn7qTIRs0rQfX1qg2GwW7ei+dd49urW3e9FjpKZl6zr1GJ2SlJLxSkxOr1SNCATCuwWdTseMqaMdflgwxVVoJ2AolepyHa8yucL47Y9/5DasV5u9Zv2OwofxibrnHf+D/l0E3bu2szngioR2dAAQCvn0Wr4eLFvb1PL1YE0YO0S0d/8p2dhPBjra2sbVxbHK4ySPx6XNmj7OcUC/LkJ3N2emvb2AzqAzaAIB76WsNrV8PVgPoo8GanU6o0qlpgoKpYaIK7cVy1dvLXzyNOW5z6uqEIEgEAg1QvNm9dlbNvzs2aRRXe6a9TvE/+w8LO3QrhXvuzmTXT08XMqMPUI7AX3QB92Ee/afkiYkpVVqhmzZRjg65qHq4zEzM82/5+QWlDFnXYy4pejcc2zaT99Ndf5u3ueuAMBiMmkcLqd44H70OEkzcNjUdPPvMpmiStFEdev4sY7sW+fzol0uzaSlZ+v+3XVEEn33kUaj0ZRZRTmIhHQuj0sbMrC7/e2re/3HTJifefBIeBkn/8tABIJAIFQrTCYT382d7Dznm/EuUXfilK3aD026H/dECwCx9x5rBTwefemSb2yafDqFBAk6hQQJPp/wkWO3vuPTcvPEZQb58lAoVMb4x8mVmkXr9YZyzVYymaLSxykNj8elHd6z1vtlxeHE6QjZ8E9mZMnlqueK06Yte6ULF0x13r7lN+92XUYkx8TGa1/m3JYQgSAQCNXKqmVzXEeP/MBx2jdLsjZt2Sst/Xltf29W3IOnamcnB4aHh4tN00+jhgHcUR/1E65cs01S1fO/36Y5t349fxYA3Iq6r6nq/l6ebswZU0c7AECRTG48cuy8Il8sqZRQzfxqrGPDBgFcANh74HSRTq+nhg/uLbodHad6/DRF27ljG4HBYMTlyChFgJ83m8Vm0T6f9lP2L4umu5pNZSmpWbohI6ZnCvhc+tRJI22avdZs2CH5ds4kp369Ogn7Dpqc/uPideLePUMEq5bNc+/cc2xaVe+5PIhAEAiEauXMuavKiZ8Oc7oZVbbXe/vg97gD+3cV/rPzcJFAwKdNnTyiTF7E/bgn6slfLsyOvBb9Qr3iJ40fJjL7E+YuWJmTX1D43ME9N0+spygKNBoN3l5urJVL53iYPzvYK1Q66OOvMiva30zXLsEC879/WbapIDrmoaZd2xb8BQv/yD977qpy47qF7hqN1jjt68V5yxbPdGnZsiE3PTNHnycuLDap7Tt4ukilUlP16voxynPo/7PzsNTby43l5ubI5PO5NIqi8HfYfsnald96slhMmk6nr5aWmUQgCARCtXLk2AXFydOXZRv++NGjXecRqRRFwclBRF/+6yzX0SMHOJ46Gylbs36HZOO6n8oMflF34lTBnUak6PU1E6TToll9bkT4v75+tbyK6zvpDQbExMZrew+cnNqofgAbANq3a8kfPLC7PQCIHOwq7VgW2vGLt+3csQ0vOuahJiEpTXv7dpwaAKJjHqoZdNMmwe+34DmIhIwFcyc5NWlYh2ver6CwyErQxAUS/eRpP2Vb/63IeCkiSpmSkqnLzy80AkDElSgVi8Wk8fk8WlGRjAgEgUB4M5n69eLcuDtHAiZNGC7SaDTUbz9/7aZSaalho75JM2dLa9QljtcrV+8oGtSvzTl6/ILMzo5Pl0ikxm5dgnmJiWn60I5BvK3/HCxjqnoRHET2jA7tWhbP8tMzcnR79p2UAsDps1eUp89eUQKARCozmgWiKrBZrGKnebvgFryVa7ZJjh6/KC+QFBlFIiE96vZ9tb29HZ3NZtFatmjE2733RNG0rxfnrV/9Pa1Z0/pcAJBK5VZ+B51Wj4fxCcV+BalUbtRotNT40YMc2gW/x9/x3zGpuKDIIFcoKQDgcji0IlRPXiERCAKBUO2kpWfrf/5lQ97ald966HR6avW6fwoWLlkvVqnUxaIQfvG6ouV7jXnTZ/2SfejoOQVgMkHduLzLr/eASelhG5d4ffnNkuzePUIElREIDodNc3F2YHA47HIzjiOvRSsGDpuaCQAKpdpoeT0uzg4M87+dHR1eKByVaRFV1aa1qebUvzuOSAHgk4/7C//avEcqsrejvx/UjMPjcWyeQya3jpry8HBh3o86HGD+Pfz8NXn3fhPSS++nVKooAGCzmdWWcU0EgkAg1Agr1/xTaDAYqcPHzyueJqSWiQrasu2AdNv2Q1KFwjSw8Xhc2uwZnzrt/O94Udcuwbx7cY/VTZvU5eTmicu1N8ktBtOgVk34eWmRdSu6Jp1eD1sOZw6HTStvX4VCXWlzDUWVbOrr48Gq7efNTErJ0Ds7iRj9+3QSrt2wsyhfLDGEhgSJyjuGSmUd0qpQqIx7D5wuLlQYey/epuOdw2GXuYaXhQgEgUCoEfR6PVb8EVZuFJLawsTk4GBPP7J3rfeFSzeV3p5uzAljhzgO+vjL9B1bl3qNmTA/q7xjHDxyTjFowHlp61ZNeEIhv8yMXKXWUlqNjjKX+FAoyg8bLV0GRKvVUekZObqVq7cVPO9ezVBG69G5a5dg/t9b90lbtWzCadyobnHoa/t2LXnlHcO8EjBTKJEaxk36Nud55+bxTPWcjOXUvHoRiEAQCITXCpvNorVr25w7+9sVud27BAsSEtN0fQZ+nrZq+Wy3Q0fOya7duFtuNJNMpjAOHD7tuRFG/+46WqFRXqPRUiL3tk9e5PotycrJ0zdqGFj8e//eoXYPHiZo+/bsKPD2cmOFdmjNU6rUxjatm/ABwNvLjdW/TyeBr68nCwAMBiMVHfNQAwAKhYqKuhOnys7Jt7mCepKYouXxuTSl0rTCadGsIUepVBsLCqXVViac1GIiEAivFR6PS9u/a7VXsyb1uHfuPlALhQJ6w/q1Oct/D8tf8UeYpDpNJjXNhwO6CQ7sXu37ovsfPBxe6ZBaS+h0Oi6eDvONf5Ks/WzK989dbVQWIhAEAuGNwMvTldG0SX2OVqujrt+MUVs6kN8mDu9Z4zWgX5cqR0BlZ+frW7UfkpSZlVfp7HEAcHdzYWzesMijWZN63PfeH5QsLiiq0v4VQQSCQCBUG4MH9rDjWkQRpaVn6QQCHt3JsSRCKOLqHZWrsyOjceNAtrmV6IVLN1Qh7VrzMrPz9Pfjnmh7dG3HzxMXGtLTs/VBrZtwYu891nI4bFr9ev6sqDtxGqlUbgxu24LL43FoAJCSkqW/HBmlGvRBdzsOm0Xbd+iMXKPRUmw2ixYaEsTz8nRlAIBcrqKuXL2jUms0VJfQtjx7ewEdAPLyCgynzkYqRw7vKwSA7buPyQIDfFntg9/jJiWl6y5H3q500h6Px6Vt+vMn9xHD+jhUpVXqth2HJDEx8c89j4ODPYNGM5nmAmr7snr3CBEmJKZqB4+YnpGQmFatBfuID4JAIFQbnUPb8Ht172AXGODLjrwWrdiz/7Rs4qdDHBo3qsM9fuqyLF9cYHiamKqLPL/dn8FgYOee4xKjkYJCqaK2b/3N+2LELcWiX9bnb9/6m3fUnTjVvgOnpb/+/LV7UnK69nJklHLMyIEO839YlfPhgG72Qa2a8PbsP1UU3LYF39fHg9Vv8Oepmzf85GkvtGOcPX/tSW6e2PDJiP7Cv/9c5PXocZImMSld26dniPDE6QhZzL1H6nkzP3ONiX2kvvfgqTohMVV74nSEcujgXvb9+3QS5uQVpE4YO1g0dFBP0eCPp1epdIVKpaZGjZudvWLV1sJRH/cXuru7MEX2dgwAaB/cgu/oIGLY2m/MyIEOGFnxsY1GI8LPX5NrdXpKKpMbsrPz9SPGzso4fuqywmis/g6lRCAIBEK1MXXGz7n//buCERjgy96++5h0w6bdRRM/HeIAABcu3lDcun1PfeNWrNrcJGjUuDnZFEXhg/6dBYCpQmnL5o3KFLqr7e/DtiyVzWSa9l++amvBL4tmMHx9PFhMJqPMdJ3JNOUERN2JUx08HC7r0zNEyGTQaeaEtoNHz0l37Tkhq1/Xn13bz5u5YOHqvD49Q4TTp4527BQSJIi6E6ey1Qa1MkTHPNSYHc5mWjRvwDmyd52Pr4/t8uMVodFoqS9mLMraHHagWpIGKwPpKEcgEF4JoSGt+d0sahXZwsPNhdmta9ltZHKFwc3VuUYmtONGf2h/ZN8638EDe9jF3nusPXgkvKh3jw5CHo9D/2HRmrzqPNfdmEeatiEfJYefvyavyn5PE1I13fuOT3mV4gAQgSAQCK+Ih/GJ2szsfL2XpyvDHJk0Y+pohxlTRzuYZ/qPniRpl67cXCbv4K9NewotC9CZ9+/Tq6PAw83UW8Iy2GnMyA/sJ3/2kYhOo1MAUNvPmxXaoTW/eP9nqQItmjbgNqpv3Y1u45Z9RYCpquqJ0xHKarl5C7Jy8gzd+01IHzJiRnrktWhFRVFaCYlp2tnzV+Q0bjUgOeLqnRcqXvgyMABMBhEKAoFQTQgEPFpGZo7u7LlryvSMbL290I4W/yRJw2azaG6uTozomEea6JiH6sTENK2ziyPD0VHEOHfxuspgMBgjrtxW3o5+oGEw6NSVyDvKqOgHGplcYdh36Iw89l68OjEpXRt+4ZrycsQtZX6+RG9nx6cnp2ToTp6JkO/877hcwOfR7sY+VDk4COlurk6MzWH7ZWqN1lBYKDXQ6DRcvRat2rhlryTi6m1VQYHUoNPrqSKp3Hgz6p7q3IXrquTUDD0oCgwGg7oSeVt5+UqUqqae08NHCdot/xyQ/h22T3Iv7qnqbuxDdUxsvPrcxeuKfQfOSOd+vzLv2x9X51+9Hq02GKrfv1AJ9DQAlwG4vo6zEwgEAuGNJYcOoNJp5AQCgUB4Zyikg+RBEAgEAqEscXQAN173VRAIBALhjeMmHUAEgGprck0gEAiEtx4NgCt0AGIAx17zxRAIBALhzeEogAJzeOtmkFUEgUAgEExasBkw5UEAQCEAA4Dg13VFBAKBQHgj+B3ABaBEIAAgBkADALVfxxURCAQC4bVzDsCvACjAWiAoAGcB1AMQUHY/AoFAIPwfcxbA1wCKO9iVLjtrBHASQC6ANgDYr+zSCAQCgfA6UANYDeAXmFwNxVTUzcIeQF8APQDUAuCOsoJCIBAIhLcLA4AcAKkAzgA4DsBmldj/AWLV2IKeEEKBAAAAAElFTkSuQmCC;" vertex="1" parent="67nn3bJeUpM4fDcLrt_K-12">
          <mxGeometry x="3" y="3" width="272" height="136.69" as="geometry" />
        </mxCell>
        <mxCell id="67nn3bJeUpM4fDcLrt_K-13" value="Насос с&amp;nbsp;&lt;div style=&quot;font-size: 14px;&quot;&gt;резрвуаром&lt;/div&gt;" style="rounded=1;whiteSpace=wrap;html=1;fillColor=#fad7ac;strokeColor=#b46504;fontFamily=gotham pro;fontSource=https%3A%2F%2Ffonts.googleapis.com%2Fcss%3Ffamily%3Dgotham%2Bpro;fontSize=14;" vertex="1" parent="1">
          <mxGeometry x="635" y="410" width="120" height="60" as="geometry" />
        </mxCell>
        <mxCell id="67nn3bJeUpM4fDcLrt_K-26" style="rounded=0;orthogonalLoop=1;jettySize=auto;html=1;exitX=0;exitY=1;exitDx=0;exitDy=0;" edge="1" parent="1" source="67nn3bJeUpM4fDcLrt_K-14" target="67nn3bJeUpM4fDcLrt_K-21">
          <mxGeometry relative="1" as="geometry" />
        </mxCell>
        <mxCell id="67nn3bJeUpM4fDcLrt_K-27" style="rounded=0;orthogonalLoop=1;jettySize=auto;html=1;exitX=0;exitY=0;exitDx=0;exitDy=0;" edge="1" parent="1" source="67nn3bJeUpM4fDcLrt_K-14" target="67nn3bJeUpM4fDcLrt_K-20">
          <mxGeometry relative="1" as="geometry" />
        </mxCell>
        <mxCell id="67nn3bJeUpM4fDcLrt_K-30" style="edgeStyle=orthogonalEdgeStyle;rounded=0;orthogonalLoop=1;jettySize=auto;html=1;exitX=1;exitY=0.5;exitDx=0;exitDy=0;" edge="1" parent="1" source="67nn3bJeUpM4fDcLrt_K-14" target="67nn3bJeUpM4fDcLrt_K-13">
          <mxGeometry relative="1" as="geometry" />
        </mxCell>
        <mxCell id="67nn3bJeUpM4fDcLrt_K-14" value="Блок управления" style="rounded=1;whiteSpace=wrap;html=1;fillColor=#bac8d3;strokeColor=#23445d;fontFamily=gotham pro;fontSource=https%3A%2F%2Ffonts.googleapis.com%2Fcss%3Ffamily%3Dgotham%2Bpro;fontSize=14;" vertex="1" parent="1">
          <mxGeometry x="455" y="410" width="120" height="60" as="geometry" />
        </mxCell>
        <mxCell id="67nn3bJeUpM4fDcLrt_K-20" value="Клапан" style="ellipse;whiteSpace=wrap;html=1;aspect=fixed;fillColor=#d0cee2;strokeColor=#56517e;fontFamily=gotham pro;fontSource=https%3A%2F%2Ffonts.googleapis.com%2Fcss%3Ffamily%3Dgotham%2Bpro;fontSize=14;" vertex="1" parent="1">
          <mxGeometry x="345" y="310" width="80" height="80" as="geometry" />
        </mxCell>
        <mxCell id="67nn3bJeUpM4fDcLrt_K-21" value="&lt;div style=&quot;font-size: 14px;&quot;&gt;Насосы&lt;/div&gt;" style="ellipse;whiteSpace=wrap;html=1;aspect=fixed;fillColor=#d0cee2;strokeColor=#56517e;fontSize=14;" vertex="1" parent="1">
          <mxGeometry x="345" y="505" width="80" height="80" as="geometry" />
        </mxCell>
        <mxCell id="67nn3bJeUpM4fDcLrt_K-28" style="rounded=0;orthogonalLoop=1;jettySize=auto;html=1;exitX=0;exitY=1;exitDx=0;exitDy=0;entryX=1;entryY=0;entryDx=0;entryDy=0;" edge="1" parent="1" source="67nn3bJeUpM4fDcLrt_K-22" target="67nn3bJeUpM4fDcLrt_K-13">
          <mxGeometry relative="1" as="geometry" />
        </mxCell>
        <mxCell id="67nn3bJeUpM4fDcLrt_K-22" value="Таймер" style="ellipse;whiteSpace=wrap;html=1;aspect=fixed;fontFamily=gotham pro;fontSource=https%3A%2F%2Ffonts.googleapis.com%2Fcss%3Ffamily%3Dgotham%2Bpro;fontSize=14;fillColor=#cdeb8b;strokeColor=#36393d;" vertex="1" parent="1">
          <mxGeometry x="787" y="310" width="80" height="80" as="geometry" />
        </mxCell>
        <mxCell id="67nn3bJeUpM4fDcLrt_K-29" style="rounded=0;orthogonalLoop=1;jettySize=auto;html=1;exitX=0;exitY=0;exitDx=0;exitDy=0;entryX=1;entryY=1;entryDx=0;entryDy=0;" edge="1" parent="1" source="67nn3bJeUpM4fDcLrt_K-23" target="67nn3bJeUpM4fDcLrt_K-13">
          <mxGeometry relative="1" as="geometry" />
        </mxCell>
        <mxCell id="67nn3bJeUpM4fDcLrt_K-23" value="Кнопка" style="ellipse;whiteSpace=wrap;html=1;aspect=fixed;fontFamily=gotham pro;fontSource=https%3A%2F%2Ffonts.googleapis.com%2Fcss%3Ffamily%3Dgotham%2Bpro;fontSize=14;fillColor=#cdeb8b;strokeColor=#36393d;" vertex="1" parent="1">
          <mxGeometry x="787" y="505" width="80" height="80" as="geometry" />
        </mxCell>
        <mxCell id="67nn3bJeUpM4fDcLrt_K-31" style="rounded=0;orthogonalLoop=1;jettySize=auto;html=1;exitX=0;exitY=0.5;exitDx=0;exitDy=0;" edge="1" parent="1" source="67nn3bJeUpM4fDcLrt_K-24" target="67nn3bJeUpM4fDcLrt_K-13">
          <mxGeometry relative="1" as="geometry" />
        </mxCell>
        <mxCell id="67nn3bJeUpM4fDcLrt_K-24" value="Другие устройства" style="ellipse;whiteSpace=wrap;html=1;aspect=fixed;fontFamily=gotham pro;fontSource=https%3A%2F%2Ffonts.googleapis.com%2Fcss%3Ffamily%3Dgotham%2Bpro;fontSize=14;fillColor=#cdeb8b;strokeColor=#36393d;" vertex="1" parent="1">
          <mxGeometry x="860" y="399" width="90" height="90" as="geometry" />
        </mxCell>
      </root>
    </mxGraphModel>
  </diagram>
</mxfile>
